<?xml version="1.0" encoding="UTF-8"?>
<svg id="uuid-2958984c-1fc0-4fd3-9490-ba55aac2ad94" data-name="Layer 1" xmlns="http://www.w3.org/2000/svg" viewBox="0 0 3499.99 3535.29">
  <defs>
    <style>
      .uuid-bdca0b0c-8300-4422-99ed-ecf74117c2c6 {
        fill: none;
      }
    </style>
  </defs>
  <rect class="uuid-bdca0b0c-8300-4422-99ed-ecf74117c2c6" y="35.3" width="3499.99" height="3499.99"/>
  <g>
    <rect class="uuid-bdca0b0c-8300-4422-99ed-ecf74117c2c6" x=".22" width="3499.26" height="3499.26"/>
    <path d="M1262.45,3465.36c-27.79-57.55-62.7-111.46-116.21-179.53-31.99-40.68-54.43-77.21-60.46-98.44-9.63-33.9-11.05-106.16-2.93-149.21l4.36-23.08-27.61,31.86c-81.79,94.37-95.76,106.98-109.33,98.66-20.56-12.61-19.36-41.25,4.13-99,11.95-29.37,24.03-61.34,26.84-71.07l5.13-17.65-20.95,16.25c-98.78,76.64-137.3,85.24-278.07,62.08-48.71-8.02-94.35-10.44-145.32-7.73l-74.31,3.96,3.96-74.31c2.71-50.97.31-96.61-7.73-145.32-23.15-140.75-14.55-179.28,62.08-278.07l16.26-20.95-17.67,5.13c-9.72,2.82-41.7,14.91-71.07,26.84-57.75,23.48-86.39,24.68-99,4.13-8.32-13.56,4.3-27.53,98.66-109.33l31.86-27.61-23.08,4.36c-43.14,8.14-115.35,6.69-149.43-2.99-21.08-5.99-56.55-27.51-93.44-56.68-68.19-53.92-117.97-86.71-175.2-115.39-22.05-11.07-40.99-20.88-42.1-21.82-1.09-.95,15.86-30.15,37.67-64.88,21.81-34.73,53.87-99.67,71.26-144.29,22.55-57.89,40.29-90.85,61.9-115.03,28.09-31.41,89.07-68.21,133.77-80.72,17.04-4.76,16.32-5.61-10.94-12.84-16.05-4.26-53.56-11.39-83.35-15.86-57.87-8.68-73.42-16.49-73.42-36.89s15.56-28.21,73.42-36.88c29.8-4.47,67.3-11.6,83.35-15.86,27.26-7.24,27.98-8.07,10.94-12.84-44.7-12.52-105.68-49.31-133.77-80.74-21.61-24.16-39.35-57.14-61.9-115.01-17.39-44.63-49.46-109.56-71.26-144.31-21.82-34.73-38.77-63.93-37.67-64.87,1.11-.95,20.05-10.77,42.1-21.82,57.23-28.69,107.01-61.48,175.2-115.39,36.89-29.19,72.37-50.71,93.44-56.69,34.08-9.69,106.29-11.13,149.43-2.99l23.08,4.36-31.86-27.61c-94.37-81.78-106.98-95.76-98.66-109.33,12.61-20.54,41.25-19.36,99,4.13,29.37,11.95,61.34,24.03,71.07,26.84l17.67,5.13-16.26-20.95c-76.64-98.78-85.23-137.3-62.08-278.05,8.02-48.71,10.44-94.35,7.73-145.33l-3.96-74.31,74.31,3.96c50.97,2.71,96.61.31,145.32-7.73,140.76-23.15,179.28-14.55,278.07,62.1l20.95,16.25-5.13-17.67c-2.81-9.71-14.89-41.7-26.84-71.07-23.48-57.75-24.68-86.37-4.13-98.99,13.56-8.33,27.53,4.28,109.33,98.66l27.61,31.86-4.36-23.09c-8.14-43.14-6.69-115.34,2.99-149.43,5.99-21.06,27.51-56.55,56.68-93.44,53.92-68.19,86.71-117.97,115.39-175.2,11.07-22.05,20.88-40.99,21.83-42.09.95-1.11,30.14,15.86,64.87,37.66s99.67,53.87,144.29,71.26c57.89,22.55,90.85,40.29,115.03,61.9,31.41,28.09,68.21,89.07,80.73,133.77,4.78,17.04,5.61,16.32,12.84-10.94,4.26-16.04,11.39-53.56,15.87-83.35,8.67-57.85,16.48-73.42,36.88-73.42s28.21,15.57,36.88,73.42c4.48,29.8,11.61,67.32,15.86,83.35,7.24,27.26,8.07,27.98,12.84,10.94,12.52-44.7,49.31-105.68,80.74-133.77,24.16-21.61,57.14-39.35,115.01-61.9,44.63-17.39,109.56-49.46,144.31-71.26,34.73-21.81,63.92-38.75,64.87-37.66.95,1.09,10.77,20.03,21.83,42.09,28.3,56.47,64.28,111.42,109.92,167.92,54.52,67.49,71,107.58,70.61,171.79-.21,28.41-2.46,62.86-5.08,76.56l-4.74,24.9,27.6-31.86c81.79-94.38,95.77-107,109.33-98.66,20.56,12.61,19.36,41.24-4.13,98.99-11.94,29.37-24.1,61.58-27,71.57-5.86,20.1-7.42,20.86,44.21-20.96,64.31-52.06,121.68-61.3,249.83-40.23,48.71,8.02,94.35,10.45,145.32,7.73l74.32-3.96-3.96,74.31c-2.72,50.98-.33,96.62,7.72,145.33,23.16,140.75,14.55,179.27-62.08,278.05l-16.25,20.95,17.67-5.13c9.71-2.81,41.68-14.89,71.05-26.84,57.75-23.48,86.39-24.68,99-4.13,8.32,13.56-4.28,27.55-98.66,109.33l-31.86,27.61,23.08-4.36c43.15-8.14,115.35-6.68,149.43,2.99,21.08,5.99,56.55,27.51,93.46,56.69,68.18,53.91,117.97,86.7,175.18,115.39,22.07,11.05,41.01,20.87,42.1,21.82,1.09.95-16.01,30.4-38.03,65.44-22,35.06-50.31,90.46-62.92,123.14-32.47,84.19-52.93,121.72-80.87,148.34-24.53,23.35-86.79,57.96-122.02,67.8-18.24,5.09-17.82,5.61,10.15,13.04,16.05,4.26,53.56,11.39,83.37,15.86,57.85,8.67,73.42,16.49,73.42,36.88s-15.57,28.21-73.42,36.89c-29.81,4.47-67.32,11.6-83.37,15.86-27.98,7.42-28.39,7.94-10.15,13.04,35.23,9.84,97.49,44.44,122.02,67.8,27.94,26.61,48.4,64.14,80.87,148.34,12.6,32.66,40.92,88.08,62.92,123.12,22.01,35.06,39.12,64.5,38.03,65.45-1.11.95-20.03,10.75-42.1,21.82-57.21,28.68-107.01,61.47-175.18,115.39-36.91,29.17-72.38,50.69-93.46,56.68-34.08,9.69-106.28,11.13-149.43,2.99l-23.08-4.36,31.86,27.61c94.38,81.79,106.98,95.76,98.66,109.33-12.61,20.56-41.25,19.36-99-4.13-29.37-11.94-61.34-24.02-71.05-26.84l-17.67-5.13,16.25,20.95c76.64,98.78,85.24,137.31,62.08,278.07-8.02,48.71-10.44,94.35-7.72,145.32l3.96,74.31-74.32-3.96c-50.97-2.71-96.61-.31-145.32,7.73-140.75,23.16-179.28,14.55-278.07-62.08l-20.95-16.25,5.13,17.65c2.81,9.72,14.91,41.7,26.84,71.07,23.48,57.75,24.68,86.39,4.13,99-13.56,8.32-27.53-4.3-109.33-98.66l-27.61-31.86,4.75,24.89c2.62,13.69,4.89,48.15,5.08,76.57.4,64.19-16.09,104.29-70.61,171.77-45.65,56.5-81.62,111.46-109.94,167.92-11.05,22.07-20.87,41.01-21.82,42.1-.95,1.09-30.14-15.86-64.87-37.66-34.75-21.82-99.68-53.88-144.31-71.27-57.88-22.55-90.85-40.29-115.03-61.9-31.41-28.09-68.2-89.07-80.73-133.77-4.76-17.04-5.61-16.32-12.84,10.94-4.26,16.05-11.39,53.56-15.86,83.35-8.67,57.87-16.49,73.42-36.88,73.42s-28.21-15.56-36.89-73.42c-4.47-29.8-11.6-67.3-15.86-83.35-7.23-27.26-8.06-27.98-12.84-10.94-12.51,44.7-49.31,105.68-80.73,133.77-24.17,21.61-57.15,39.35-115.03,61.9-44.63,17.39-109.44,49.39-144.03,71.1-34.59,21.71-63.53,39.48-64.3,39.48-.81,0-8.93-15.58-18.13-34.64ZM1474.79,3334.87c74.59-30.93,116.24-63.98,140.2-111.27,21.6-42.63,42.95-114.74,36.87-124.57-8.5-13.76-16.65-7.47-21.12,16.32-7.36,39.11-44.76,109.6-71.78,135.3-15.97,15.18-50.42,33.52-93.18,49.62-81.22,30.55-100.63,40.24-129.59,64.61l-22.04,18.54-21.74-45.62c-11.96-25.1-40.17-66.96-62.71-93.03-57.15-66.12-72.2-99.54-71.82-159.59.21-26.79,4.13-62.89,8.79-80.2,8.84-32.82,5.64-45.63-7.99-32-11.48,11.48-27.99,87.08-28.13,128.75-.21,54.9,12.13,84.54,64.83,156.18,26.75,36.36,61.46,88.6,77.15,116.1l28.51,50.02,55.08-31.4c30.28-17.26,83.69-43.26,118.69-57.76ZM2307.76,3254.22c49.95-67.56,62.36-97.97,62.19-152.48-.22-41.67-16.65-117.27-28.13-128.75-13.63-13.63-16.83-.82-7.99,32,4.66,17.31,8.62,53.41,8.79,80.2.4,60.05-14.67,93.47-71.82,159.59-22.52,26.06-50.74,67.93-62.71,93.03l-21.74,45.62-22.04-18.54c-28.95-24.37-48.38-34.06-129.59-64.61-42.76-16.1-77.21-34.45-93.18-49.62-27.03-25.7-64.43-96.19-71.78-135.3-4.47-23.8-12.61-30.08-21.12-16.32-6.08,9.83,15.27,81.94,36.87,124.57,23.95,47.27,65.6,80.32,140.22,111.29,34.98,14.53,88.22,40.41,118.3,57.54l54.69,31.13,31.59-53.65c17.38-29.51,52.23-81.57,77.47-115.69ZM1386.65,3274.89c25.52-11.51,61.78-26.47,80.61-33.25,18.81-6.78,42.71-19.02,53.1-27.19,24.59-19.33,51.28-72.68,66.31-132.54,11.83-47.09,11.77-48.11-4.07-70.38l-16.09-22.59-22.12,34.89c-12.17,19.19-45.49,58.91-74.03,88.28-28.55,29.36-60.1,70.4-70.13,91.2-16.6,34.42-20.19,37.61-40.02,35.45-35.33-3.84-40-12.07-35.33-62.07,3.18-33.99.31-58.85-11.72-101.7-8.75-31.19-17.83-79.58-20.18-107.53-2.34-27.95-5.58-50.82-7.21-50.82s-12.51,4.93-24.2,10.99c-24.79,12.81-42.41,60.48-48.79,131.96-5.38,60.14,5.19,87.69,57.74,150.57,24.29,29.07,47.53,60.23,51.64,69.26,4.11,9.02,9.87,16.4,12.78,16.4s26.18-9.41,51.69-20.93h.01ZM1425.97,3234.9c-14.94-10.92-12.63-32.73,4.65-43.6,8.8-5.56,15.32-5.02,23.69,1.91,26.49,21.99-.64,61.91-28.34,41.67h0ZM1270.15,3194.62c-5.36-3.4-8.64-14.01-7.29-23.59,3.38-23.95,39.05-29,46.19-6.54,8.28,26.08-15.83,44.74-38.9,30.12ZM1468.5,3175.51c-10.28-26.78,19.33-50.43,38.78-30.98,16.21,16.21,6.01,41.92-16.62,41.92-9.88,0-19.85-4.92-22.16-10.94ZM1247.49,3117.63c-6.46-7.77-6.63-14.35-.64-25.52,9.88-18.47,33.74-19.63,43.13-2.1,14.96,27.96-22.18,52.1-42.49,27.62h0ZM1519.54,3109.87c-10.28-26.78,19.33-50.42,38.78-30.97,16.21,16.21,6.01,41.92-16.62,41.92-9.88,0-19.85-4.93-22.16-10.95ZM1240.1,3037.31c-15.18-18.3-6.16-36.82,17.94-36.82,15.07,0,22.44,4,24.2,13.11,2.9,15.04-10.69,34.29-24.2,34.29-5.04,0-13.11-4.76-17.94-10.58ZM2178.32,3279.42c4.11-9.02,27.35-40.19,51.63-69.26,52.55-62.88,63.11-90.42,57.75-150.57-6.39-71.48-24.02-119.15-48.8-131.96-11.68-6.05-22.57-10.99-24.19-10.99s-4.88,22.87-7.21,50.82c-2.34,27.95-11.42,76.3-20.15,107.44-11.44,40.79-14.83,68.25-12.11,98.26,4.39,48.28-3.19,62.58-34.88,65.77-19.88,2-23.54-1.25-40.1-35.62-10.04-20.8-41.59-61.85-70.14-91.2-28.55-29.37-61.86-69.09-74.03-88.28l-22.12-34.89-16.08,22.59c-15.84,22.26-15.91,23.3-4.09,70.38,15.17,60.39,41.77,113.24,66.99,133.07,10.77,8.46,36.07,21.1,56.25,28.07,20.18,6.96,54.95,21.44,77.29,32.17,50.46,24.23,54.73,24.5,63.98,4.2ZM2045.78,3234.9c-14.96-10.92-12.63-32.73,4.65-43.6,8.8-5.56,15.32-5.02,23.69,1.91,26.49,21.99-.64,61.91-28.34,41.67h0ZM2195.34,3190.44c-4.87-5.88-6.61-17.42-3.91-25.94,7.12-22.47,42.8-17.41,46.19,6.55,3.79,26.83-25.11,40.1-42.27,19.4h-.01ZM1987.11,3171.48c-6.96-21.94,13.58-42.65,31.24-31.5,6.95,4.37,12.63,15.8,12.63,25.4,0,24.42-36.45,29.5-43.87,6.11ZM2210.5,3115.16c-9.05-16.91,2.69-38.09,21.12-38.09s33.03,26.53,21.38,40.56c-11.96,14.42-34.13,13.14-42.49-2.47ZM1936.07,3105.85c-6.96-21.94,13.58-42.66,31.24-31.52,6.95,4.39,12.63,15.82,12.63,25.4,0,24.43-36.45,29.51-43.87,6.11h0ZM2224.51,3037.31c-15.19-18.3-6.16-36.82,17.94-36.82,15.06,0,22.44,4,24.2,13.12,2.9,15.02-10.7,34.28-24.2,34.28-5.04,0-13.11-4.76-17.94-10.58ZM1764.16,3109.29c13.29,12.02,14.16,11.85,19.12-3.8,2.86-9.01,22.79-37.13,44.3-62.47,99.86-117.71,114.43-188.14,51.55-249.07l-24.6-23.85-22.81,62.62c-29.63,81.34-76.82,193.28-81.49,193.28s-51.85-111.94-81.48-193.28l-22.81-62.62-24.6,23.85c-62.88,60.94-48.3,131.37,51.55,249.07,21.51,25.35,41.44,53.47,44.3,62.47,4.96,15.65,5.85,15.82,19.12,3.8,13.19-11.95,14.66-11.95,27.85,0ZM1672.83,3030.1c-7.77-20.24.55-36.89,18.38-36.89,23,0,36.03,20.24,23.08,35.85-11.98,14.42-36.1,15.02-41.46,1.04ZM1786.49,3029.37c-13.25-15.96-.49-36.19,22.89-36.19,14.5,0,17.43,3.67,17.43,21.87,0,16.62-3.66,22.4-15.22,24.06-8.37,1.2-19.67-3.19-25.1-9.74ZM1634.75,2953.96c-14.97-9.49-7.47-40.62,10.39-43.17,21.9-3.12,35.38,15.39,25.14,34.52-8.57,16.01-19.66,18.71-35.53,8.64ZM1830.2,2945.31c-6.01-11.25-5.79-17.78.92-25.88,13.53-16.29,38.98-9.63,41.89,10.94,4.17,29.46-28.87,40.99-42.82,14.94ZM1624.27,2871.88c-15.3-8.55-16.38-30.54-2.1-42.39,14.07-11.68,40.58,2.36,40.58,21.49s-21.84,30.2-38.47,20.89h-.01ZM1850.32,2871.88c-17.18-9.62-15.83-33.22,2.47-43.02,11.17-5.98,17.74-5.81,25.53.64,24.54,20.37-.23,57.92-28,42.39ZM1400.06,3075.21c0,9.03,2.93,16.42,6.3,16.42,13.79,0,97.52-96.48,111.84-128.87,13.9-31.43,19.41-71.61,10.96-80.06-1.8-1.8-24.99,11.95-51.58,30.53l-48.32,33.78-26.7-56.23c-24.23-51-27.61-54.99-36.46-42.88-27.57,37.71-30.05,91.56-8.32,180.21l15.9,64.79,13.11-17.04,13.12-17.05.21,16.4h-.05ZM1392.37,3004.94c-14.54-11.94-16.19-16.82-9.36-27.7,10.31-16.44,50.46-15.93,67.24.83,28.33,28.34-25.58,53.35-57.88,26.86h0ZM2100.42,3075.21l.21-16.4,13.12,17.05,13.11,17.04,15.9-64.79c21.74-88.65,19.25-142.5-8.32-180.21-8.85-12.11-12.24-8.12-36.46,42.88l-26.7,56.23-48.32-33.78c-26.58-18.58-49.79-32.32-51.58-30.53-8.45,8.45-2.94,48.64,10.96,80.06,14.32,32.39,98.05,128.87,111.84,128.87,3.37,0,6.21-7.39,6.3-16.42h-.05ZM2048.71,3007.15c-13.08-15.75-.87-33.86,28.46-42.27,39.48-11.33,60.73,20.07,28.76,42.47-20.82,14.58-45.03,14.49-57.21-.21h0ZM872,2972.21c46.06-21.44,124.73-92.91,116.65-105.97-4.22-6.82-11.69-3.58-28.59,12.37-79.11,74.68-129.45,89.89-234.81,70.92-43.74-7.89-90.06-11.48-120.01-9.35l-48.78,3.49,3.49-48.78c2.15-29.95-1.46-76.26-9.33-120-18.98-105.37-3.78-155.7,70.92-234.82,15.93-16.88,19.18-24.37,12.37-28.59-13.49-8.33-85.19,71.64-107.05,119.36-16.32,35.67-17.56,45.17-13.3,102.39,2.58,34.68,6.65,103.25,9.05,152.38l4.36,89.33,70.21.55c38.62.33,84.98,3.18,103.04,6.38,68.61,12.21,132.55,8.62,171.79-9.66ZM2885.11,2977.62l88.47-4.37,4.33-88.47c2.37-48.66,6.44-116.85,9.02-151.54,4.24-57.2,3.02-66.7-13.32-102.39-21.84-47.72-93.56-127.68-107.03-119.35-6.82,4.22-3.58,11.7,12.37,28.59,74.68,79.11,89.89,129.45,70.92,234.81-7.89,43.74-11.48,90.06-9.35,120.01l3.49,48.78-48.78-3.49c-29.95-2.15-76.26,1.46-120,9.33-105.37,18.98-155.7,3.78-234.82-70.92-16.88-15.93-24.37-19.18-28.59-12.35-7.98,12.91,70.17,84.2,116.67,106.41,33.29,15.9,43.29,17.21,102.5,13.47,36.1-2.27,105.45-6.11,154.11-8.51ZM1107.98,2936.36c6.34-5.19,24.64-13.77,40.68-19.06,64.1-21.17,146.79-64.63,165.71-87.13,27.39-32.56,36.29-68.96,26.44-108.1-4.36-17.33-9.63-31.5-11.72-31.5s-35.33,25.72-73.88,57.16c-38.55,31.45-87.6,69.69-108.99,85l-38.9,27.81,4.34-32.12c14.84-109.91,27.81-196.17,33.05-219.88,6.93-31.33,7.09-31.27-38.72-15.66-65.73,22.4-90.15,81.32-77.22,186.34,4.11,33.46,10.25,71.09,13.63,83.63,3.37,12.54,4.45,31.57,2.41,42.3-3.41,17.82-2.14,19.11,14.74,14.87,14.58-3.66,19.48-1.43,23.28,10.57,5.62,17.72,9.49,18.6,25.15,5.78ZM1154.12,2897.2c-17.87-7.21-6.03-53.5,13.71-53.5,7.37,0,28.22,21.56,28.22,29.17s-21.1,29.37-27.86,28.59c-2.73-.31-9.06-2.23-14.07-4.26ZM1225.91,2840.87c-13.21-15.92,2.6-42.52,23.51-39.55,22.53,3.22,23.13,44.99.72,48.19-8.37,1.21-19.27-2.69-24.2-8.64h-.03ZM1050.76,2833.42c-13.73-16.57-2.81-40.77,18.41-40.77s30.64,18.26,19.71,35.63c-10.09,16.01-27.17,18.32-38.12,5.14ZM1277.14,2772.41c-14.96-27.95,22.18-52.1,42.49-27.62,6.44,7.77,6.61,14.36.64,25.53-9.89,18.46-33.76,19.63-43.13,2.08h0ZM1050.9,2738.78c-13.21-15.92,2.6-42.52,23.51-39.55,22.52,3.22,23.12,44.99.72,48.19-8.37,1.21-19.27-2.69-24.21-8.64h-.01ZM1082.8,2661.14c-13.07-14.44-13.03-15.24,1.18-29.46,25.59-25.59,55.31-.79,34.55,28.87-13.43,19.19-18.82,19.27-35.73.55v.04ZM2417.66,2930.58c3.81-12.02,8.7-14.23,23.29-10.57,16.86,4.23,18.13,2.96,14.72-14.87-2.04-10.73-.96-29.76,2.41-42.3,3.38-12.54,9.52-50.17,13.63-83.63,12.93-105.02-11.49-163.94-77.22-186.34-45.81-15.61-45.64-15.67-38.72,15.66,5.25,23.71,18.21,109.96,33.05,219.88l4.33,32.12-38.9-27.81c-21.39-15.31-70.44-53.54-108.99-85-38.55-31.44-71.79-57.16-73.88-57.16s-7.34,14.18-11.72,31.5c-9.85,39.15-.95,75.54,26.44,108.1,18.95,22.53,101.98,66.16,165.71,87.06,16.04,5.27,33.96,13.84,39.85,19.06,14.8,13.15,20.37,11.92,25.97-5.71h.01ZM2315.9,2890.57c-6.31-6.3-11.47-14.27-11.47-17.7,0-7.62,20.87-29.17,28.24-29.17,21.39,0,31.07,46.32,11.27,53.91-15.44,5.92-14.97,6.04-28.04-7.03ZM2234.31,2840.48c-7.19-18.72.64-36.83,16.83-39.16,20.57-2.94,36.66,23.63,23.73,39.2-11.22,13.51-35.37,13.49-40.56,0v-.04ZM2414.1,2833.11c-13.96-16.82-6.11-36.55,15.54-39.05,14.42-1.68,20.62,1.67,24.24,13.11,8.94,28.17-21.48,48.01-39.78,25.95ZM2180.22,2770.31c-5.98-11.17-5.82-17.74.62-25.53,20.37-24.54,57.92.23,42.39,28-9.61,17.18-33.22,15.83-43.01-2.47ZM2409.33,2738.39c-7.19-18.72.62-36.83,16.83-39.16,20.56-2.93,36.65,23.63,23.72,39.2-11.21,13.51-35.37,13.5-40.55,0v-.04ZM2381.96,2660.56c-20.76-29.64,8.94-54.47,34.55-28.87,14.22,14.22,14.24,15.02,1.18,29.46-16.92,18.68-22.3,18.6-35.73-.55v-.04ZM861.8,2886.85c16.36-8.36,49.39-34.26,73.37-57.59,40.82-39.71,43.27-43.97,38.38-66.85-6.47-30.15-8.14-32.06-19.77-22.68-16.26,13.12-80.22,37.02-143.32,53.58-38.83,10.19-69.4,23.17-83.86,35.62-34.13,29.39-44.25,30.76-64.75,8.75-20.44-21.95-19.06-31.57,9.2-64.13,12.69-14.63,25.48-44.6,35.79-83.86,16.55-63.1,40.46-127.06,53.58-143.32,9.39-11.64,7.47-13.3-22.68-19.77-22.89-4.91-27.14-2.45-66.85,38.38-23.33,23.98-49.62,57.75-58.45,75.05-16.96,33.26-17,39.21-1.3,192.73l5.22,51.04,56.88,4.62c31.28,2.54,58.89,6.64,61.37,9.11,11.33,11.33,98.39,4.01,127.21-10.69h-.01ZM725.61,2872.48c-6.96-21.94,13.58-42.65,31.24-31.5,6.95,4.37,12.63,15.8,12.63,25.4,0,24.42-36.45,29.5-43.87,6.11ZM803.76,2864.11c-22.03-22.01.31-56.93,27.23-42.53,17.96,9.61,19.28,24.15,3.59,39.84-13.75,13.75-19.31,14.23-30.83,2.69ZM875.89,2826.29c-6.72-8.1-6.94-14.63-.92-25.88,13.94-26.05,46.98-14.52,42.82,14.94-2.9,20.57-28.38,27.22-41.89,10.94ZM621.18,2771.66c-5.36-3.4-8.64-14.02-7.29-23.59,2.97-20.92,32.91-24.41,45-5.26,13.89,22.04-14.36,43.65-37.71,28.85ZM636.03,2696.39c-11.52-11.53-11.04-17.08,2.71-30.83,15.69-15.69,30.23-14.37,39.84,3.59,14.4,26.9-20.53,49.26-42.54,27.23ZM671.32,2621.64c-13.96-16.82-6.09-36.54,15.56-39.05,25.31-2.94,36.84,25.07,16.47,39.97-16.77,12.26-21.19,12.13-32.02-.91ZM2833.1,2889.06l51.04-5.26,5.22-51.04c15.69-153.52,15.65-159.47-1.31-192.73-8.83-17.29-35.12-51.07-58.45-75.05-39.71-40.82-43.96-43.27-66.85-38.36-30.14,6.46-32.06,8.12-22.68,19.76,13.12,16.26,37.04,80.22,53.58,143.32,10.31,39.28,23.09,69.24,35.79,83.86,28.26,32.56,29.64,42.18,9.2,64.13-20.5,22.01-30.62,20.65-64.75-8.74-14.46-12.46-45.02-25.44-83.86-35.63-63.09-16.55-127.06-40.46-143.32-53.58-11.64-9.39-13.3-7.47-19.76,22.68-4.91,22.89-2.46,27.14,38.3,66.78,23.95,23.3,56.28,49.27,71.85,57.74,29.75,16.17,57.07,16.47,196,2.15h0ZM2730,2876.51c-10.27-26.78,19.33-50.43,38.78-30.98,16.21,16.21,6.03,41.92-16.61,41.92-9.88,0-19.87-4.92-22.17-10.94ZM2665.9,2861.41c-15.67-15.69-14.37-30.23,3.59-39.84,26.9-14.4,49.26,20.52,27.25,42.54-11.53,11.52-17.08,11.04-30.84-2.71ZM2586.39,2831.53c-15.86-15.86.31-46.18,24.64-46.18,13.03,0,23.09,29.45,13.86,40.58-9.07,10.91-30.12,13.98-38.51,5.61h0ZM2843.53,2766.52c-12.98-15.63,0-35.85,23.17-35.85,12.84,0,18.08,4.6,19.9,17.41,3.89,27.55-25.19,40-43.08,18.45ZM2822.55,2694.68c-10.51-12.65,1.59-40.58,17.57-40.58,10.67,0,33.08,19.14,33.08,28.24,0,20.66-36.39,29.52-50.65,12.34ZM2797.28,2622.66c-19.06-13.93-9.31-41.48,14.66-41.48,20.35,0,30.68,18.21,19.98,35.2-10.05,15.91-19.2,17.57-34.64,6.27ZM1762.84,2871.04c4.27-13.04,22.95-66.37,41.54-118.5,77.11-216.35,85.87-322.5,33.53-406.67-17.52-28.18-20.49-38.34-14.49-49.55,11.86-22.16,33.8-16.87,54.12,13.04,24.53,36.09,38.47,80.92,46.92,150.83,6.69,55.48,24.7,96,41.19,92.74,12.95-2.56,6.08-76.19-9.63-103-43.02-73.46-51.06-196.89-12.8-196.89,20.41,0,31.88,20.46,27.94,49.85-10.52,78.41,56.86,188.48,183.83,300.31,90.41,79.63,171.33,146.17,171.3,140.84-.01-3.35-11.48-67.3-25.49-142.12-44.53-238.02-91.23-336.96-180.48-382.5-36.5-18.63-44.3-36.8-23.28-54.25,24.32-20.18,106.25,36.57,151.75,105.13,30.06,45.29,37.01,51.66,72.77,66.59l26.96,11.26-11.26-26.95c-14.94-35.76-21.3-42.71-66.59-72.77-46.15-30.63-78.46-66.05-99.22-108.82-12.74-26.22-13.75-33.51-5.92-42.95,17.57-21.15,35.63-13.23,54.45,23.94,44.81,88.42,144.55,135.24,383.42,180.01,74.19,13.9,137.64,25.28,141,25.29,10.47,0-147.56-182.25-210.27-242.58-79.84-76.78-169.98-120.72-230.9-112.54-29.38,3.94-49.85-7.54-49.85-27.94,0-38.26,123.44-30.24,196.89,12.8,26.86,15.74,96.03,22.3,101.41,9.62,6.64-15.63-34.88-34.39-91.14-41.19-69.92-8.44-114.75-22.38-150.84-46.9-29.92-20.33-35.2-42.27-13.04-54.13,11.21-6,21.36-3.03,49.56,14.5,84.17,52.32,190.32,43.57,406.67-33.55,52.14-18.58,105.46-37.27,118.49-41.53,13.03-4.27,23.69-9.93,23.69-12.6s-10.66-8.33-23.69-12.6c-13.03-4.27-69.74-24.08-126.01-44.03-133.58-47.35-197.16-61.69-275.25-62.12-59.52-.31-67.51,1.48-113.61,25.55-52.25,27.29-73.94,26.79-73.94-1.69,0-31.56,80.83-67.58,177.98-79.31,55.47-6.7,95.98-24.7,92.73-41.19-2.56-12.97-76.19-6.09-103,9.62-73.45,43.04-196.89,51.06-196.89,12.8,0-20.41,20.46-31.88,49.85-27.94,60.92,8.18,151.06-35.76,230.9-112.54,62.71-60.33,220.73-242.63,210.27-242.59-3.36.03-66.81,11.4-141,25.31-238.87,44.76-338.61,91.58-383.42,180.01-18.82,37.15-36.88,45.09-54.45,23.93-20.18-24.32,36.58-106.24,105.15-151.75,45.28-30.06,51.64-37.01,66.59-72.77l11.26-26.96-26.96,11.26c-35.76,14.94-42.71,21.31-72.77,66.6-30.63,46.15-66.05,78.45-108.82,99.22-26.22,12.73-33.5,13.73-42.93,5.91-21.02-17.46-13.23-35.62,23.28-54.25,89.25-45.54,135.93-144.47,180.48-382.5,14.01-74.81,25.48-138.77,25.49-142.13.03-5.31-80.89,61.21-171.32,140.86-126.97,111.84-194.33,221.89-183.82,300.3,3.94,29.39-7.52,49.86-27.94,49.86-38.26,0-30.23-123.44,12.8-196.89,15.74-26.86,22.3-96.03,9.63-101.41-15.65-6.64-34.39,34.88-41.19,91.14-11.73,97.14-47.76,177.98-79.32,177.98-28.5,0-28.99-21.7-1.69-73.94,24.08-46.1,25.88-54.1,25.55-113.61-.4-78.1-14.78-141.68-62.11-275.25-19.94-56.28-39.76-112.98-44.03-126.02-4.28-13.03-9.95-23.71-12.61-23.71s-8.34,10.67-12.61,23.71c-4.27,13.03-24.08,69.74-44.03,126.02-47.35,133.58-61.69,197.16-62.11,275.25-.33,59.51,1.47,67.51,25.55,113.61,27.29,52.24,26.79,73.94-1.69,73.94-31.56,0-67.59-80.84-79.32-177.98-6.78-56.26-25.54-97.78-41.19-91.14-12.67,5.38-6.11,74.55,9.63,101.41,43.02,73.45,51.06,196.89,12.8,196.89-20.41,0-31.88-20.46-27.94-49.86,8.14-60.72-37-153.67-112.14-230.89-62.83-64.56-243.03-220.5-243-210.27.01,3.36,11.48,67.32,25.49,142.13,44.55,238.02,91.23,336.96,180.48,382.5,36.67,18.71,44.3,36.8,22.98,54.49-9.89,8.2-17.48,6.63-50.03-10.41-43.55-22.79-67.59-45.85-105.52-101.12-17.18-25.05-37.69-44.26-58.54-54.85-17.67-8.97-33.51-14.91-35.21-13.2-9.14,9.14,35.84,68.24,69.83,91.75,55.52,38.42,78.39,62.34,101.12,105.75,17.04,32.55,18.62,40.13,10.41,50.03-17.81,21.45-35.79,13.69-54.7-23.63-44.81-88.43-144.55-135.26-383.42-180.01-74.19-13.9-137.64-25.29-141-25.31-5.31,0,61.21,80.89,140.86,171.3,111.08,126.12,222.43,194.27,300.3,183.83,29.39-3.94,49.86,7.52,49.86,27.94,0,38.26-123.44,30.23-196.89-12.8-26.8-15.71-100.43-22.59-103-9.63-3.25,16.49,37.26,34.5,92.73,41.19,97.14,11.73,177.98,47.75,177.98,79.32,0,28.48-21.7,28.99-73.94,1.69-46.1-24.08-54.1-25.88-113.61-25.55-78.1.4-141.68,14.78-275.25,62.11-56.28,19.94-112.98,39.76-126.02,44.03-29.86,9.79-29.86,15.44,0,25.23,13.03,4.27,69.74,24.08,126.02,44.03,133.58,47.35,197.16,61.69,275.25,62.11,59.51.33,67.51-1.47,113.61-25.55,52.24-27.29,73.94-26.79,73.94,1.69,0,31.56-80.84,67.59-177.98,79.32-56.26,6.8-97.78,25.55-91.14,41.19,5.38,12.67,74.54,6.11,101.41-9.63,73.45-43.02,196.89-51.06,196.89-12.8,0,20.41-20.46,31.88-49.86,27.94-77.87-10.44-189.22,57.71-300.3,183.83-79.64,90.41-146.17,171.33-140.86,171.3,3.35-.01,66.81-11.4,141-25.31,238.87-44.76,338.61-91.58,383.42-180.01,18.92-37.32,36.89-45.08,54.7-23.63,8.2,9.89,6.63,17.48-10.41,50.03-22.73,43.4-45.6,67.33-101.12,105.75-33.99,23.51-78.97,82.61-69.83,91.75,1.71,1.71,17.55-4.23,35.21-13.2,20.85-10.58,41.36-29.8,58.54-54.85,37.93-55.27,61.98-78.33,105.52-101.12,32.55-17.04,40.13-18.62,50.03-10.41,21.32,17.69,13.69,35.79-22.98,54.49-89.25,45.54-135.93,144.49-180.48,382.5-14.01,74.81-25.48,138.77-25.49,142.13,0,5.31,80.89-61.21,171.3-140.86,126.12-111.08,194.27-222.43,183.83-300.3-3.94-29.39,7.52-49.86,27.94-49.86,38.26,0,30.23,123.44-12.8,196.89-15.71,26.8-22.59,100.43-9.63,103,16.49,3.25,34.5-37.26,41.19-92.73,11.73-97.14,47.76-177.98,79.32-177.98,28.48,0,28.99,21.7,1.69,73.94-24.08,46.1-25.88,54.1-25.55,113.61.4,78.1,14.76,141.68,62.11,275.25,19.94,56.28,39.76,112.98,44.03,126.01,4.27,13.03,9.95,23.71,12.61,23.71s8.33-10.67,12.59-23.71h0ZM1738.69,2775.45c-6.61-17.26-.31-37.49,11.65-37.49,7.12,0,10.84,7.32,10.84,21.27,0,23.04-15.56,34.28-22.5,16.22ZM1702.45,2652.85c-2.71-8.55.21-19.57,7.06-27.21,6.38-7.06,9.39-15.05,6.68-17.76-5.6-5.6,26.8-114.21,34.07-114.21s39.65,108.61,34.06,114.21c-2.71,2.72.33,10.7,6.69,17.76,6.9,7.64,9.75,18.65,7.04,27.21-3.87,12.18-11.17,14.38-47.79,14.38s-43.94-2.21-47.8-14.38ZM1757.54,2624.94c0-4.01-3.28-7.29-7.3-7.29s-7.29,3.27-7.29,7.29,3.28,7.29,7.29,7.29,7.3-3.28,7.3-7.29ZM1227.83,2635.78c-4.99-12.97,9.4-32.71,23.81-32.71,12.35,0,13.21,23.08,1.29,34.99-11.77,11.77-20.01,11.01-25.11-2.28h.01ZM2247.55,2638.06c-11.92-11.91-11.07-34.99,1.29-34.99,14.41,0,28.8,19.76,23.81,32.71-5.09,13.3-13.33,14.05-25.1,2.28ZM1305.6,2552.19c-8.11-8.12-21.09-14.75-28.85-14.75s-16.21-6.68-18.82-14.94c-5.23-16.48,7.2-36.11,22.87-36.11,5.53,0,10.05-4.43,10.05-9.84s19.68-26.96,43.75-47.89c24.29-21.13,43.75-33.51,43.75-27.83,0,22.63-17.26,97.15-24.71,106.64-4.36,5.57-6.95,17.65-5.74,26.84,3.37,25.75-23.2,36.98-42.31,17.87h0ZM1320.03,2508.27c0-4.01-3.29-7.29-7.3-7.29s-7.29,3.27-7.29,7.29,3.28,7.29,7.29,7.29,7.3-3.28,7.3-7.29ZM2163.43,2558.09c-7.88-4.43-12.16-13.84-10.83-23.9,1.2-9.13-1.39-21.15-5.77-26.73-7.43-9.49-24.7-84.02-24.7-106.64,0-5.68,19.46,6.69,43.75,27.83,24.06,20.93,43.75,42.48,43.75,47.89s4.52,9.85,10.04,9.85c15.67,0,28.12,19.62,22.89,36.1-3.07,9.66-11.01,14.94-22.48,14.94-9.75,0-17.74,3.16-17.74,7.03,0,12.65-24.99,21.39-38.91,13.6h0ZM2195.05,2508.27c0-4.01-3.28-7.29-7.29-7.29s-7.3,3.27-7.3,7.29,3.28,7.29,7.3,7.29,7.29-3.28,7.29-7.29ZM1682.19,2481.53c-11.04-11.04-4.39-38.06,10.53-42.79,20.52-6.52,38.77,11.74,32.26,32.26-4.74,14.92-31.76,21.57-42.79,10.53ZM1775.65,2471.42c-6.96-21.92,13.59-42.65,31.24-31.5,6.95,4.39,12.63,15.8,12.63,25.4,0,24.43-36.45,29.51-43.87,6.11ZM1419.3,2409.63c-14.72-14.72-14.78-21.28-.31-35.75,14.46-14.45,21.02-14.4,35.75.33,10.19,10.18,10.41,13.84,1.73,26.93-13.53,20.39-23.07,22.56-37.14,8.47h-.03ZM2051.24,2411.66c-15.35-19.85-16.29-26.62-5.22-37.7,14.46-14.46,21.08-14.48,35.49,0,6.3,6.3,11.46,14.27,11.46,17.7,0,7.91-20.99,29.17-28.8,29.17-3.23,0-9.05-4.1-12.93-9.11v-.07ZM1718.78,2336.41c-16.7-24.04-26.91-46.53-25.53-56.24,3.24-22.76,30.53-25.18,45.34-4.02l11.65,16.62,11.64-16.62c14.81-21.15,42.11-18.73,45.34,4.02,2.03,14.23-46.54,96.31-56.98,96.31-2,0-16.17-18.03-31.46-40.07ZM1334.89,2359.15c-15.18-18.3-6.16-36.82,17.94-36.82,15.07,0,22.44,4,24.2,13.11,2.9,15.04-10.69,34.29-24.2,34.29-5.04,0-13.11-4.76-17.94-10.58ZM2129.71,2359.15c-15.18-18.3-6.16-36.82,17.94-36.82,15.07,0,22.46,4,24.2,13.11,2.9,15.04-10.69,34.29-24.2,34.29-5.04,0-13.1-4.76-17.94-10.58ZM1433.74,2269.47c-9.72-47.5-7.47-83.59,5.83-93.31,18.2-13.3,33.52-5.42,38.59,19.89,3.2,16.06,7.19,20.15,16.04,16.49,28.76-11.86,52.02,3.32,42.62,27.82-3.8,9.89-78.19,49.16-93.13,49.16-3.22,0-7.68-9.02-9.95-20.05ZM2005.47,2268.92c-26.75-13.15-40.84-24.75-42.28-34.81-3.15-21.87,14.42-33.96,36.93-25.41,16.48,6.27,18.71,4.92,22.39-13.5,4.89-24.49,20.41-32.17,38.4-19.01,13.3,9.72,15.56,45.82,5.83,93.31-5.01,24.46-10.43,24.41-61.28-.55v-.04ZM856.78,2267.37c-6.59-10.65,10.19-28.85,26.62-28.85,15.47,0,18.07,14.58,4.93,27.72-10.78,10.78-25.27,11.3-31.56,1.15h0ZM2612.15,2266.24c-13.14-13.14-10.53-27.72,4.95-27.72,16.42,0,33.2,18.19,26.61,28.85-6.29,10.17-20.78,9.65-31.56-1.13ZM1631.67,2238.15c-65.73-16.16-89.76-27.44-114.21-53.61-9.72-10.41-24.83-18.93-33.55-18.93-39.41,0-149.3-110.3-149.3-149.84,0-8.44-8.51-23.29-18.93-33.01-26.58-24.84-37.39-48.39-53.88-117.46-11.33-47.4-12.81-66.09-6.98-87.78,5.04-18.68,5.04-36.41,0-55.09-5.83-21.69-4.35-40.38,6.98-87.78,16.49-69.07,27.3-92.62,53.88-117.46,10.41-9.72,18.93-24.58,18.93-33.01,0-39.55,109.9-149.84,149.3-149.84,8.72,0,23.82-8.51,33.55-18.93,24.84-26.58,48.38-37.39,117.45-53.88,47.41-11.33,66.11-12.81,87.78-6.96,18.68,5.02,36.42,5.02,55.11,0,21.69-5.83,40.38-4.36,87.78,6.96,69.07,16.49,92.62,27.3,117.46,53.88,9.72,10.41,24.81,18.93,33.53,18.93,39.41,0,149.32,110.29,149.32,149.84,0,8.44,8.51,23.29,18.92,33.01,26.58,24.84,37.39,48.39,53.89,117.46,11.31,47.4,12.8,66.09,6.96,87.78-5.02,18.68-5.02,36.41,0,55.09,5.83,21.69,4.36,40.38-6.96,87.78-16.51,69.07-27.31,92.62-53.89,117.46-10.4,9.72-18.92,24.58-18.92,33.01,0,39.54-109.91,149.84-149.32,149.84-8.72,0-23.81,8.51-33.53,18.93-24.84,26.58-48.39,37.37-117.46,53.88-47.52,11.35-66.07,12.81-87.9,6.94-18.93-5.1-36.26-5.06-54.88,0-14.98,4.15-28.87,7.34-30.88,7.07-2-.23-29.12-6.74-60.25-14.4v.12ZM1730.07,2184.29c17.44-9.1,22.77-8.97,42.74.98,49.33,24.6,149.72-2.99,176.64-48.56,9.44-15.99,18.72-20.99,44.25-23.86,58.87-6.64,121.15-69.83,121.15-122.94,0-22.81,3.71-29.86,21.18-40.17,46.41-27.42,74.4-127.36,49.59-177.08-10.23-20.5-10.23-24.88,0-45.38,24.81-49.73-3.18-149.67-49.59-177.08-17.46-10.32-21.18-17.38-21.18-40.17,0-53.11-62.28-116.3-121.15-122.94-25.53-2.88-34.81-7.88-44.25-23.86-26.88-45.5-127.32-73.16-176.53-48.61-20.44,10.19-24.9,10.21-45.19,0-47.71-23.81-150.38,3.98-176.2,47.67-9.97,16.9-18.85,21.79-44.76,24.71-58.87,6.64-121.13,69.84-121.13,122.94,0,22.79-3.72,29.86-21.19,40.17-46.41,27.42-74.39,127.36-49.59,177.08,10.23,20.5,10.23,24.88,0,45.38-24.8,49.73,3.18,149.67,49.59,177.08,17.47,10.31,21.19,17.38,21.19,40.17,0,53.11,62.27,116.3,121.13,122.94,25.91,2.92,34.78,7.81,44.76,24.7,10.71,18.15,42.69,38.51,82.03,52.25,22.13,7.72,77.15,4.58,96.5-5.52v.1ZM1670.32,2141.9c-13.89-7-36.35-12.76-49.92-12.76s-34.64-7.13-47.58-16.4c-12.6-9.02-35.04-21.9-49.86-28.6-15.19-6.86-32-21.94-38.51-34.51-6.35-12.28-21.58-27.52-33.87-33.87-12.58-6.5-27.64-23.3-34.51-38.49-6.7-14.83-19.57-37.26-28.59-49.86-9.8-13.68-16.4-33.57-16.4-49.39,0-14.55-5.35-34.64-11.9-44.61-16.78-25.62-16.78-141.25,0-166.87,6.54-9.97,11.9-30.06,11.9-44.61,0-15.82,6.6-35.71,16.4-49.39,9.02-12.6,21.88-35.03,28.59-49.86,6.87-15.19,21.94-32,34.51-38.51,12.29-6.35,27.53-21.58,33.87-33.86,6.51-12.59,23.32-27.65,38.51-34.52,14.81-6.7,37.26-19.57,49.86-28.59,13.68-9.8,33.57-16.4,49.38-16.4,14.57,0,34.64-5.35,44.63-11.9,25.62-16.78,141.25-16.78,166.85,0,9.98,6.54,30.06,11.9,44.63,11.9,15.8,0,35.71,6.6,49.38,16.4,12.6,9.02,35.04,21.88,49.87,28.59,15.19,6.87,31.99,21.94,38.49,34.52,6.35,12.28,21.6,27.52,33.87,33.86,12.58,6.51,27.64,23.32,34.51,38.51,6.7,14.83,19.58,37.26,28.6,49.86,9.79,13.68,16.4,33.57,16.4,49.39,0,14.55,5.35,34.64,11.89,44.61,8.76,13.36,11.89,35.36,11.89,83.43s-3.12,70.06-11.89,83.43c-6.54,9.97-11.89,30.06-11.89,44.61,0,15.82-6.61,35.71-16.4,49.39-9.02,12.6-21.9,35.03-28.6,49.86-6.86,15.19-21.94,32-34.51,38.49-12.28,6.35-27.52,21.6-33.87,33.87-6.5,12.58-23.3,27.65-38.49,34.51-14.83,6.7-37.27,19.58-49.87,28.6-13.67,9.79-33.57,16.4-49.38,16.4-14.57,0-34.45,5.23-44.2,11.61-26.28,17.22-130.55,17.95-163.78,1.15ZM1820.64,2085.01c4.22-4.23,20.82-9,36.88-10.58,39-3.88,74.75-26.67,132.64-84.55,57.88-57.88,80.66-93.64,84.55-132.64,1.6-16.06,6.35-32.66,10.57-36.88,4.23-4.22,7.68-35.9,7.68-70.39s-3.45-66.17-7.68-70.39c-4.22-4.23-8.98-20.82-10.57-36.88-3.89-39.02-26.67-74.76-84.55-132.64-57.89-57.88-93.64-80.67-132.64-84.55-16.06-1.6-32.66-6.37-36.88-10.58-10-10-130.78-10-140.78,0-4.23,4.22-20.82,8.98-36.88,10.58-39.02,3.88-74.76,26.67-132.64,84.55-57.88,57.88-80.67,93.63-84.55,132.64-1.6,16.06-6.37,32.65-10.58,36.88-10,10-10,130.78,0,140.78,4.22,4.22,8.98,20.82,10.58,36.88,3.88,39,26.67,74.76,84.55,132.64,57.88,57.88,93.63,80.67,132.64,84.55,16.06,1.6,32.65,6.35,36.88,10.58,4.22,4.22,35.89,7.67,70.39,7.67s66.16-3.45,70.39-7.67ZM1721.37,2033.61c-11.91-16.44-23.65-36.19-26.09-43.86-4.36-13.73-4.76-13.73-23.95,0-25.4,18.03-75.3,38.75-80.59,33.47-2.27-2.28-5.4-26.58-6.95-54.01l-2.81-49.87-49.87-2.82c-27.43-1.54-51.73-4.67-54.01-6.95-5.21-5.19,15.31-55.01,32.78-79.61l13.17-18.55-31.83-16.88c-17.51-9.28-37.44-23.08-44.3-30.67-11.78-13-11.78-14.57,0-27.57,6.86-7.59,26.79-21.39,44.3-30.67l31.83-16.88-13.17-18.55c-17.47-24.59-37.97-74.41-32.78-79.61,2.28-2.28,26.58-5.4,54.01-6.95l49.87-2.82,2.81-49.87c1.55-27.43,4.69-51.73,6.95-54,5.21-5.21,55.03,15.31,79.62,32.77l18.54,13.17,16.88-31.83c9.29-17.5,23.09-37.44,30.68-44.3,13.01-11.78,14.55-11.78,27.57,0,7.58,6.86,21.39,26.8,30.67,44.3l16.88,31.83,18.55-13.17c24.59-17.46,74.41-37.97,79.61-32.77,2.28,2.27,5.4,26.57,6.95,54l2.82,49.87,49.87,2.82c27.43,1.54,51.81,4.75,54.18,7.12,5.1,5.1-7.68,36.05-29.82,72.25l-15.88,25.96,31.62,16.77c17.39,9.23,37.23,22.98,44.09,30.57,11.77,13.01,11.77,14.57,0,27.57-6.86,7.59-26.8,21.39-44.31,30.67l-31.83,16.88,13.17,18.55c17.47,24.59,37.99,74.41,32.78,79.61-2.28,2.28-26.57,5.4-54,6.96l-49.87,2.81-2.82,49.87c-1.54,27.43-4.67,51.73-6.95,54.01-5.29,5.29-55.18-15.44-80.58-33.48-19.2-13.63-19.61-13.63-23.95,0-6.34,19.98-46.42,73.79-54.96,73.79-3.96,0-16.95-13.46-28.87-29.92ZM1764.37,1948.55c8.47-31.46.62-70.97-14.12-70.97-5.44,0-12.51,9.79-15.71,21.75-6.29,23.51,4.61,76.69,15.71,76.69,3.7,0,10.05-12.35,14.12-27.47ZM1669.28,1921.08c27.34-31.14,33.08-75.13,8.05-61.73-19.18,10.26-35.14,35.3-40.9,64.18-6.13,30.66,4.49,29.86,32.86-2.45ZM1864.08,1923.54c-5.78-28.89-21.74-53.93-40.92-64.19-25.02-13.4-19.29,30.59,8.05,61.73,28.37,32.31,39,33.1,32.87,2.46ZM1616.53,1848.31c9.1-5.96,20.05-17.41,24.34-25.42,6.99-13.07,5.55-14.58-14.07-14.58-21.87,0-73.43,37.01-73.43,52.71,0,9.79,41.59,1.42,63.16-12.71ZM1947.13,1860.1c0-15.26-52.24-51.8-74.07-51.8s-22.09.64-11.89,16.4c17.6,27.21,85.96,55.35,85.96,35.4ZM1794.56,1794.28c14.54-14.55,21.31-28.61,21.31-44.31,0-31.37-34.26-65.62-65.62-65.62s-65.64,34.25-65.64,65.62c0,15.7,6.77,29.76,21.32,44.31,14.54,14.54,28.61,21.31,44.31,21.31s29.76-6.77,44.31-21.31ZM1621.63,1757.13c9.79-9.15-.22-19.45-23.51-24.1-23.88-4.78-73.93,6.78-73.93,17.07,0,17.76,79.83,23.51,97.44,7.03ZM1948.96,1764.17c15.04-4.18,27.34-10.6,27.34-14.27,0-11.05-53.24-21.91-76.69-15.65-35.24,9.43-25.72,28.52,18.36,36.82,2,.4,15.95-2.73,31-6.9ZM1640.87,1677.04c-10.27-19.16-35.31-35.14-64.19-40.9-30.64-6.13-29.85,4.49,2.46,32.86,31.14,27.35,75.11,33.08,61.73,8.05ZM1921.34,1668.99c32.31-28.37,33.1-38.99,2.46-32.86-28.87,5.78-53.92,21.74-64.18,40.9-13.4,25.03,30.59,19.31,61.73-8.05h-.01ZM1691.91,1625.89c0-23.37-45.06-81.23-55.27-71.01-9.65,9.65,11.35,62.64,30.9,78.02q24.3,19.12,24.37-7ZM1848.57,1616.25c14.14-21.56,22.51-63.16,12.72-63.16-15.7,0-52.71,51.56-52.71,73.44,0,19.62,1.5,21.06,14.58,14.07,8.02-4.3,19.46-15.24,25.41-24.34ZM1766.08,1600.13c6.16-23.04-4.88-76.21-15.83-76.21-8.83,0-23.09,53.4-18.3,68.49,2.04,6.44,5.35,16.91,7.37,23.26,5.45,17.25,20.3,8.63,26.77-15.54ZM971.68,2237.29c-4.93-4.93-8.96-13.24-8.96-18.45s-6.64-16.12-14.76-24.24c-19.1-19.1-7.86-45.68,17.89-42.3,9.19,1.2,21.27-1.38,26.84-5.75,9.49-7.43,84.02-24.7,106.64-24.7,5.68,0-6.7,19.46-27.83,43.75-20.93,24.07-41.7,43.75-46.16,43.75s-11.36,7.36-15.32,16.36c-8.41,19.11-25.59,24.29-38.34,11.56ZM999.17,2187.48c0-4.01-3.28-7.29-7.29-7.29s-7.29,3.28-7.29,7.29,3.28,7.3,7.29,7.3,7.29-3.28,7.29-7.3ZM2495.48,2237.06c-4.82-4.82-8.75-13.02-8.75-18.23s-4.43-9.48-9.84-9.48-26.97-19.7-47.91-43.75c-21.13-24.29-33.51-43.75-27.83-43.75,22.63,0,97.17,17.26,106.64,24.7,5.57,4.36,17.65,6.95,26.84,5.74,25.75-3.37,36.98,23.21,17.89,42.31-8.11,8.11-14.75,19.02-14.75,24.24,0,11.56-14.58,26.97-25.53,26.97-4.41,0-11.95-3.93-16.77-8.75ZM2515.89,2187.48c0-4.01-3.28-7.29-7.29-7.29s-7.29,3.28-7.29,7.29,3.28,7.3,7.29,7.3,7.29-3.28,7.29-7.3ZM1137.5,2161.7c-13.24-15.96-.48-36.2,22.89-36.2,14.52,0,17.44,3.67,17.44,21.87,0,16.62-3.66,22.4-15.23,24.06-8.37,1.2-19.66-3.19-25.1-9.72ZM2321.82,2162.42c-7.77-20.24.55-36.88,18.38-36.88,23,0,36.02,20.23,23.07,35.84-11.96,14.42-36.09,15.04-41.45,1.04ZM1090.52,2080.94c-14.07-14.09-11.9-23.61,8.47-37.14,13.11-8.71,16.75-8.47,26.95,1.71,14.72,14.72,14.78,21.28.31,35.75-14.46,14.46-21.02,14.4-35.75-.31h.01ZM2374.23,2081.25c-14.46-14.46-14.4-21.02.31-35.75,10.19-10.18,13.84-10.41,26.95-1.71,20.37,13.53,22.55,23.06,8.46,37.14-14.72,14.72-21.28,14.79-35.73.31h.01ZM1259.58,2070.32c-23.22-2.71-44.22-6.91-46.68-9.37-6.42-6.42,31.31-87.17,44.77-95.8,7.67-4.92,15.41-4.6,24.07,1.02,13.16,8.53,14.55,18.81,5.49,40.88-3.97,9.69-1.67,12.76,9.61,12.76,22.37,0,39.3,19.96,30.66,36.11-9.69,18.1-19.06,20.09-67.92,14.41ZM2179.44,2062.52c-17.31-17.3-9.87-35.07,16.94-40.43,16.05-3.22,20.14-7.2,16.49-16.04-8.67-21.01-7.12-31.48,5.88-39.9,8.64-5.6,16.4-5.92,24.07-1,13.21,8.47,51.24,89.33,44.95,95.6-2.34,2.34-24.71,6.68-49.69,9.63-38.69,4.56-47.39,3.38-58.65-7.86ZM1016.39,1811.97c-10.27-26.78,19.33-50.43,38.78-30.98,16.21,16.22,6.03,41.92-16.61,41.92-9.88,0-19.85-4.92-22.17-10.94ZM2439.2,1807.94c-6.95-21.92,13.59-42.65,31.26-31.5,6.95,4.39,12.63,15.8,12.63,25.4,0,24.43-36.45,29.51-43.88,6.11ZM1161.71,1780.81c-20.89-14.94-38-28.81-38.01-30.81,0-10.41,82.05-59.01,96.29-56.99,22.76,3.24,25.18,30.53,4.02,45.35l-16.62,11.64,16.62,11.64c10.41,7.3,15.78,17.51,14.37,27.35-3.67,25.76-33.7,22.55-76.69-8.18h.01ZM2265.54,1803.47c-10.01-10.01-4.31-31.15,11.34-42.13l16.21-11.35-16.61-11.64c-21.17-14.83-18.73-42.11,4.02-45.35,14.23-2.02,96.31,46.55,96.31,56.99,0,2-17.73,15.95-39.39,31-37.35,25.92-61.03,33.33-71.87,22.48ZM841.5,1795.45c-4.52-2.94-8.34-24.08-8.51-46.98-.23-35.31,1.9-42.32,14.19-46.23,8.7-2.76,19.64,0,27.34,7,7.06,6.39,15.04,9.4,17.76,6.68,5.52-5.52,114.19,26.75,114.19,33.91s-102.18,38.14-113,33.99c-5.44-2.1-13.81.92-18.62,6.7-9.57,11.53-20.72,13.17-33.35,4.92ZM882.5,1749.99c0-4.01-3.28-7.29-7.29-7.29s-7.3,3.28-7.3,7.29,3.28,7.29,7.3,7.29,7.29-3.27,7.29-7.29ZM2625.63,1790.53c-4.79-5.78-13.17-8.79-18.62-6.7-10.82,4.15-113-26.57-113-33.98s108.67-39.44,114.21-33.91c2.71,2.71,10.7-.33,17.76-6.69,7.69-6.95,18.64-9.76,27.34-7,12.3,3.91,14.45,10.94,14.19,46.23-.31,39.51-6.33,52.2-24.94,52.46-4.52,0-12.15-4.62-16.94-10.4ZM2632.57,1749.99c0-4.01-3.28-7.29-7.3-7.29s-7.29,3.28-7.29,7.29,3.28,7.29,7.29,7.29,7.3-3.27,7.3-7.29ZM718.3,1757.06c-2.84-4.58-1.87-11.61,2.11-15.61,10.62-10.62,41.78-4.26,41.78,8.54s-36.45,19.1-43.88,7.07ZM2738.18,1757.06c-2.84-4.58-1.89-11.61,2.11-15.61,10.62-10.62,41.77-4.26,41.77,8.54s-36.45,19.1-43.88,7.07ZM1021.34,1717.53c-13.96-16.81-6.09-36.54,15.56-39.05,14.41-1.67,20.61,1.67,24.24,13.11,8.94,28.17-21.48,48.01-39.8,25.94ZM2443.54,1717.85c-13.76-16.57-2.84-40.77,18.39-40.77s30.64,18.26,19.71,35.63c-10.09,16.01-27.17,18.32-38.1,5.14ZM1249.48,1529.42c-13.59-18.46-41.18-85.78-36.91-90.05,2.42-2.42,24.85-6.81,49.83-9.76,38.69-4.56,47.39-3.38,58.65,7.86,17.21,17.22,9.89,35.07-16.53,40.36-23.67,4.74-23.89,5.16-13.16,25.19,13.97,26.1-24.34,50.25-41.88,26.4ZM2210.02,1528.06c-6.33-7.62-6.56-14.44-.89-25.03,10.73-20.05,10.51-20.46-13.15-25.19-26.44-5.29-33.76-23.15-16.55-40.36,11.26-11.26,19.96-12.43,58.65-7.86,24.99,2.94,47.41,7.33,49.83,9.76,4.27,4.26-23.32,71.57-36.89,90.05-9.01,12.24-30.29,11.53-40.99-1.35h-.01ZM1093.88,1452.43c-16.38-13.27-14.23-33.6,4.31-40.71,22.3-8.55,43.66,12.81,35.1,35.11-6.39,16.68-22.83,19.01-39.39,5.6h-.01ZM2374.56,1454.5c-14.72-14.72-14.79-21.28-.31-35.75,14.45-14.45,21.01-14.4,35.73.33,14.09,14.07,11.91,23.6-8.46,37.13-13.11,8.71-16.77,8.47-26.95-1.71h-.01ZM1039.28,1368.19c-20.05-4.56-41.37-11.47-47.4-15.36-6.01-3.88-18.1-6.14-26.84-5.01-9.98,1.29-18.86-3.46-23.86-12.81-6.43-12.02-5.13-17.72,6.8-29.63,8.11-8.11,14.75-19.28,14.75-24.8,0-28.65,41.62-32.49,48.95-4.5,2.08,8.01,7.85,14.55,12.8,14.55s26.11,19.68,47.05,43.75c42.45,48.8,40.89,50.45-32.22,33.81h-.01ZM999.18,1312.5c0-4.01-3.28-7.29-7.3-7.29s-7.29,3.28-7.29,7.29,3.28,7.29,7.29,7.29,7.3-3.27,7.3-7.29ZM1137.51,1366.92c-13.25-15.96-.49-36.2,22.89-36.2,14.5,0,17.43,3.68,17.43,21.88,0,16.62-3.66,22.39-15.22,24.04-8.37,1.21-19.67-3.18-25.1-9.72ZM2321.82,1367.64c-7.77-20.23.55-36.88,18.38-36.88,23,0,36.03,20.24,23.08,35.85-11.98,14.42-36.09,15.02-41.46,1.03ZM2429,1334.4c20.92-24.06,42.1-43.75,47.05-43.75s10.7-6.54,12.8-14.54c7.32-27.99,48.93-24.16,48.93,4.5,0,5.52,6.64,16.68,14.75,24.79,19.11,19.11,7.88,45.68-17.89,42.31-9.19-1.2-21.27,1.38-26.84,5.75-9.48,7.43-84.01,24.7-106.63,24.7-5.68,0,6.69-19.46,27.83-43.75ZM2515.91,1312.53c0-4.01-3.28-7.3-7.3-7.3s-7.29,3.28-7.29,7.3,3.28,7.29,7.29,7.29,7.3-3.28,7.3-7.29ZM1437.72,1320.85c-11.26-11.26-12.42-19.96-7.86-58.65,2.96-24.98,7.29-47.35,9.63-49.69,6.27-6.29,87.13,31.74,95.6,44.95,4.92,7.67,4.6,15.41-1,24.07-8.42,13.01-18.89,14.55-39.9,5.88-8.85-3.65-12.82.48-16.04,16.49-5.35,26.8-23.13,34.25-40.43,16.94ZM2031.49,1322.92c-6.29-6.3-11.44-17.69-11.44-25.32,0-11.98-2.64-12.89-19.11-6.63-13.41,5.1-22.13,4.78-29.17-1.07-12.52-10.4-13.02-31.76-.92-40.64,18.46-13.59,85.78-41.18,90.05-36.91,5.68,5.69,15.45,88.08,11.76,99.16-5.68,17.05-29.02,23.51-41.14,11.4h-.01ZM860.37,1250.23c-7.19-8.67-7.34-13.23-.72-19.89,10.61-10.6,32.56,1.04,36.13,19.16,3.06,15.56-22.69,16.08-35.44.72h.03ZM2604.69,1249.51c3.57-18.12,25.52-29.76,36.13-19.16,6.67,6.67,6.51,11.22-.72,19.89-12.74,15.35-38.49,14.81-35.44-.72h.03ZM1696.77,1234.75c-10.84-10.84-3.44-34.51,22.48-71.86,15.05-21.66,28.99-39.39,31-39.39,10.44,0,59.01,82.08,56.99,96.29-3.24,22.77-30.53,25.19-45.36,4.02l-11.64-16.61-11.35,16.21c-10.96,15.65-32.12,21.35-42.13,11.34ZM1329.57,1169.35c-6.03-15.71,6.93-35.46,23.26-35.46,7.15,0,16.34,5.3,20.43,11.77,11.14,17.65.85,35.62-20.43,35.62-10.57,0-20.67-5.17-23.26-11.92ZM2124.4,1169.35c-6.04-15.71,6.91-35.46,23.26-35.46,7.13,0,16.32,5.3,20.41,11.77,11.14,17.65.85,35.62-20.41,35.62-10.58,0-20.69-5.17-23.26-11.92ZM1418.99,1126.06c-14.46-14.45-14.4-21.01.31-35.73,14.07-14.09,23.6-11.91,37.14,8.47,8.7,13.1,8.46,16.75-1.73,26.93-14.72,14.72-21.3,14.79-35.75.33h.03ZM2045.77,1125.75c-10.19-10.19-10.43-13.84-1.73-26.95,13.53-20.37,23.06-22.55,37.14-8.46,14.72,14.72,14.78,21.28.31,35.73-14.46,14.46-21.02,14.4-35.75-.31h.03ZM1332.68,1069.38c-23.11-20.67-41.98-41.68-41.92-46.7,0-5.01-4.43-9.11-9.95-9.11-15.67,0-28.12-19.63-22.89-36.11,2.63-8.25,11.04-14.93,18.84-14.93s20.72-6.64,28.84-14.75c19.11-19.1,45.68-7.88,42.31,17.89-1.2,9.19,1.44,21.27,5.88,26.84,8.16,10.26,28.61,107.03,23.63,111.84-1.5,1.43-21.62-14.29-44.74-34.97ZM1320.03,991.7c0-4.02-3.28-7.3-7.3-7.3s-7.29,3.28-7.29,7.3,3.28,7.28,7.29,7.28,7.3-3.28,7.3-7.28ZM2122.13,1099.15c0-22.63,17.26-97.17,24.7-106.64,4.37-5.57,6.95-17.65,5.75-26.84-3.38-25.76,23.2-36.98,42.3-17.89,8.12,8.11,21.1,14.75,28.85,14.75s16.21,6.68,18.84,14.93c5.22,16.48-7.21,36.11-22.89,36.11-5.52,0-10.04,4.43-10.04,9.84s-19.7,26.97-43.75,47.91c-24.29,21.13-43.75,33.51-43.75,27.82h0ZM2195.05,991.7c0-4.02-3.27-7.3-7.29-7.3s-7.29,3.28-7.29,7.3,3.28,7.28,7.29,7.28,7.29-3.28,7.29-7.28ZM1685.81,1058.21c-5.36-3.4-8.64-14.01-7.3-23.59,3.38-23.95,39.07-29,46.2-6.55,8.27,26.08-15.84,44.76-38.91,30.14h.01ZM1779.97,1054.35c-13.75-16.57-2.82-40.77,18.39-40.77s30.66,18.26,19.71,35.63c-10.08,16.01-27.17,18.32-38.1,5.14ZM1728.39,951.65c-9.43-30.06-14.92-56.86-12.21-59.57,2.72-2.71-.31-10.7-6.68-17.76-6.9-7.63-9.76-18.65-7.04-27.21,3.85-12.18,11.17-14.38,47.79-14.38s43.94,2.21,47.8,14.38c2.71,8.55-.22,19.58-7.06,27.21-6.38,7.06-9.39,15.05-6.68,17.76,5.6,5.6-26.8,114.21-34.07,114.21-2.6,0-12.43-24.59-21.86-54.64ZM1757.54,875.02c0-4.01-3.28-7.28-7.29-7.28s-7.3,3.27-7.3,7.28,3.28,7.3,7.3,7.3,7.29-3.28,7.29-7.3ZM1233.98,888.16c-10.78-10.78-11.3-25.28-1.13-31.56,10.65-6.59,28.85,10.19,28.85,26.61,0,15.48-14.58,18.07-27.72,4.95ZM2238.8,883.74c0-20.16,19.81-35.58,31.14-24.25,6.31,6.31,6.52,12.03.72,21.21-11.59,18.41-31.87,20.35-31.87,3.05h.01ZM1738.7,755.74c-6.63-17.26-.33-37.49,11.65-37.49,7.11,0,10.83,7.32,10.83,21.27,0,23.05-15.56,34.28-22.48,16.22ZM1512.49,2821.65c73.32-58.97,113.48-105.06,108.43-124.37-3.59-13.73-6.34-12.6-33.9,13.88-32.21,30.92-103.74,81.65-115.16,81.65-8.62,0-52.62-94.42-64.18-137.73-7.82-29.3-9.53-31.02-20.19-20.36s-10.34,16.52,3.85,69.54c18.25,68.16,53.54,161.48,61.08,161.48,2.9,0,29.94-19.84,60.07-44.08ZM2073.51,2813.93c11.08-28.48,27.12-77.83,35.64-109.68,14.19-53.02,14.52-58.88,3.85-69.54-10.66-10.66-12.37-8.94-20.19,20.36-11.29,42.26-55.47,137.73-63.75,137.73-10.82,0-72.16-42.93-110.18-77.12-31.88-28.67-36.11-30.58-39.46-17.8-2.54,9.71,5.52,24.84,25.02,47.01,28.68,32.57,133.58,120.83,143.63,120.83,2.9,0,14.36-23.32,25.44-51.8ZM872.19,2719.07c52.96-16.25,100.17-48.69,116.33-79.96l11.76-22.72-63.48,5.29-63.46,5.3,5.29-63.48,5.27-63.48-22.72,11.76c-42.63,22.05-77.86,88.03-98.85,185.13-4.91,22.78-4.18,24.08,10.77,19.33,14.02-4.44,15.4-3.05,10.96,10.96-4.75,14.96-3.45,15.67,19.33,10.75,13.43-2.9,44.39-11.39,68.79-18.89h.01ZM824.17,2676.14c-19.63-19.64-16.78-46.57,5.26-49.7,21.99-3.12,47.63,21.91,44.56,43.51-3.24,22.98-29.75,26.27-49.82,6.2ZM2716.2,2726.47c-4.19-13.2-2.64-14.61,11.18-10.22,14.96,4.75,15.69,3.45,10.77-19.33-20.97-97.1-56.2-163.09-98.85-185.13l-22.72-11.76,10.57,126.95-64.04-5.34-64.02-5.34,14.22,24.36c20.57,35.21,66.05,64.09,131.37,83.42,72.61,21.48,77.63,21.64,71.51,2.38h.01ZM2630.14,2685.86c-9.92-9.92-4.37-36.06,10.31-48.64,20.03-17.16,46.15-13.17,49.09,7.47,3.93,27.64-41.46,59.1-59.4,41.16ZM1536.61,2685.86c42.74-34.32,61.99-63.16,56.56-84.8-4.26-16.92-5.82-16.1-41.4,21.51-40.16,42.45-46.55,45.68-52.19,26.34-2.06-7.02-9.26-32.25-16-56.07-11.21-39.59-13.12-42.13-22.29-29.59-17.6,24.07-13.29,56.2,18.39,137.15,8.96,22.87,10.94,22.37,56.91-14.53ZM2033.73,2666.86c17.76-48.36,19.44-83.22,4.97-102.31-11.47-15.13-7.92-21.73-29.69,55.18-6.54,23.07-14.44,41.93-17.59,41.93s-22.35-17.59-42.7-39.09c-35.57-37.61-37.14-38.43-41.38-21.51-2.97,11.79.72,24.85,11.25,39.61,20.62,28.95,87.62,81.64,94.38,74.2,2.9-3.19,12.25-24.81,20.76-48.02ZM1088.67,2541.6c59.74-15.52,77.8-25.45,78.11-42.97,0-3.44-8.9-3.97-19.93-1.18-37.82,9.58-100.29,18.3-131.26,18.34h-31v-30.98c0-30.98,8.77-93.44,18.34-131.26,5.21-20.56,0-24.59-17.29-13.59-11.87,7.52-41.87,119.47-49.07,183.15l-5.19,45.85,45.85-5.18c25.23-2.86,75.35-12.85,111.38-22.21l.05.04ZM2563.76,2522.08c-7.11-62.8-37.17-174.62-48.95-182.1-17.35-11-22.5-6.95-17.29,13.59,9.67,38.26,18.29,100.43,18.34,132.33v32.08l-60.17-4.71c-33.08-2.59-72.77-8.24-88.18-12.55-31.2-8.72-36.37-6.98-29.82,10.09,6.54,17.04,142.9,53.61,206.45,55.38l24.64.72-5.06-44.8.04-.03ZM816.72,2471.36c46.55-10.73,76.68-36.37,90.54-77.08,15.62-45.81,15.69-45.63-15.65-38.7-23.71,5.25-109.96,18.2-219.89,33.05l-32.12,4.34,27.82-38.9c15.3-21.4,53.54-70.44,84.98-108.99,31.44-38.56,57.18-71.79,57.18-73.88s-14.18-7.37-31.5-11.73c-39.15-9.85-75.56-.95-108.1,26.44-22.5,18.93-65.96,101.61-87.13,165.71-5.3,16.05-14.57,35.11-20.59,42.37-9.58,11.55-9.62,14.06-.31,19.94,5.86,3.71,13.46,6.78,16.9,6.85,3.45,0,4.15,8.54,1.58,18.85-4.28,17.05-2.89,18.54,15.61,16.62,11.18-1.16,43.29,1.85,71.36,6.64,48.84,8.36,82.1,13.1,105.73,15.06,6.01.49,25.63-2.47,43.61-6.61h-.01ZM663.24,2445.82c-12.98-15.65,0-35.85,23.17-35.85,12.84,0,18.08,4.6,19.9,17.41,3.89,27.55-25.19,39.99-43.08,18.45ZM758.83,2446.77c-15.18-18.3-6.16-36.82,17.94-36.82,25.97,0,34.43,22.85,13.98,37.8-16.66,12.18-21.1,12.04-31.92-1h0ZM834.48,2412.91c-13.63-15.06-13.58-15.49,2.86-28.81,28.44-23.03,57.55,3.72,33.26,30.55-15.5,17.14-19.2,16.96-36.13-1.76h0ZM602.77,2344.33c-8.75-22.82,12.3-44.34,34.89-35.67,14.83,5.69,20.46,24.86,10.73,36.59-11.08,13.36-40.36,12.77-45.62-.94h0ZM656.74,2271.76c-15.19-18.29-6.16-36.8,17.94-36.8,25.97,0,34.43,22.85,13.98,37.79-16.66,12.18-21.1,12.05-31.92-.99ZM719.98,2219.49c-19.64-19.64,14.33-56.3,35.72-38.55,16.87,13.99,9.62,39.05-12.03,41.58-10.17,1.18-20.84-.21-23.69-3.03ZM2833.09,2462.76c28.08-4.73,60.2-7.65,71.36-6.5,18.5,1.9,19.89.39,15.62-16.64-2.59-10.3-1.89-18.79,1.56-18.85,3.44,0,11.05-3.14,16.9-6.85,9.31-5.88,9.27-8.4-.31-19.94-6.03-7.25-15.3-26.32-20.59-42.36-21.15-64.1-64.63-146.79-87.12-165.72-32.56-27.38-68.97-36.29-108.1-26.43-17.33,4.35-31.5,9.63-31.5,11.72s25.72,35.32,57.16,73.88c31.45,38.55,69.69,87.59,84.98,108.99l27.82,38.9-32.12-4.33c-109.91-14.84-196.18-27.81-219.89-33.05-31.33-6.93-31.26-7.11-15.65,38.72,13.45,39.48,44.12,66.55,87.22,76.96,30.77,7.45,71.42,5.18,152.66-8.49h-.01ZM2709.86,2447.85c-19.24-14.07-12.21-37.4,12.13-40.21,22.61-2.6,34.29,15.04,22.42,33.86-10.02,15.9-19.19,17.59-34.55,6.35ZM2801.47,2450.94c-5.36-3.4-8.64-14.01-7.3-23.58,2.97-20.92,32.91-24.42,45-5.26,13.89,22.03-14.36,43.64-37.7,28.85h0ZM2629.88,2414.66c-24.29-26.84,4.83-53.58,33.26-30.55,16.44,13.32,16.49,13.75,2.88,28.8-16.94,18.72-20.63,18.89-36.14,1.76ZM2852.1,2345.24c-9.74-11.72-4.11-30.89,10.73-36.58,22.59-8.67,43.65,12.85,34.89,35.66-5.25,13.7-34.52,14.29-45.62.94h0ZM2811.95,2272.85c-19.24-14.09-12.21-37.41,12.13-40.21,22.61-2.62,34.29,15.04,22.42,33.86-10.02,15.9-19.19,17.57-34.55,6.35ZM2739.86,2219.48c-8.68-8.67-5.83-29.62,5.27-38.83,15.6-12.94,42.13,3.16,39.18,23.8-2.27,15.97-33.1,26.4-44.46,15.04ZM1137.62,2443.92c27.65-8.68,42.74-18.03,48.86-30.31,4.87-9.76,8.07-18.54,7.12-19.5-.95-.95-26.1,4.53-55.87,12.2-29.77,7.65-54.94,13.12-55.9,12.15-.98-.98,4.49-26.13,12.15-55.9,7.65-29.77,13.15-54.92,12.18-55.87-.95-.95-9.52,2.2-19.03,7.02-19.15,9.69-33.89,45.47-43.22,105.03l-6.05,38.62,29.88-.49c16.44-.23,47.89-6.08,69.89-12.98v.04ZM2456.58,2418.73c-9.33-59.56-24.06-95.36-43.21-105.03-9.52-4.82-18.1-7.98-19.05-7.02-.95.95,4.53,26.1,12.18,55.87,7.65,29.77,13.12,54.92,12.16,55.9-.98.98-26.14-4.49-55.91-12.16-29.77-7.65-54.91-13.14-55.87-12.18-.94.95,2.25,9.74,7.12,19.5,10.22,20.5,70.77,42.57,118.75,43.29l29.88.49-6.05-38.64v-.03ZM476.62,2359.6c41.51-9.78,62.86-21.65,54.29-30.21-2.33-2.33-18.41-.4-35.72,4.23-17.33,4.66-53.41,8.61-80.2,8.77-60.05.4-93.47-14.66-159.59-71.81-26.08-22.53-67.72-50.65-92.56-62.49l-45.15-21.53,24.49-32.08c13.46-17.64,31.32-50.22,39.68-72.43,8.36-22.2,21.95-58.26,30.2-80.14,21.36-56.73,71.7-100.41,140.45-121.89,61.98-19.37,60.83-18.72,50.78-28.76-5.66-5.68-19.87-4.43-50.33,4.43-103.96,30.23-143.3,65.16-185.18,164.39-16.44,38.94-43.84,95.32-60.91,125.26l-31.04,54.47,39.72,20.8c21.86,11.43,74.37,46.12,116.72,77.07,42.35,30.96,87.03,59.52,99.28,63.48,32.69,10.56,96.49,9.87,145.07-1.56ZM3164.62,2361.78c14.83-4.45,61.52-33.34,103.77-64.22,42.24-30.88,94.68-65.51,116.54-76.94l39.73-20.8-31.05-54.45c-17.07-29.95-44.47-86.32-60.91-125.27-41.87-99.24-81.22-134.16-185.18-164.38-30.46-8.87-44.66-10.12-50.33-4.44-10.05,10.04-11.2,9.39,50.78,28.76,57.38,17.93,117.74,64.17,132.28,101.33,4.36,11.13,18.2,47.44,30.76,80.67,12.58,33.24,33.86,74.85,47.32,92.48l24.46,32.05-45.15,21.53c-24.84,11.83-66.48,39.95-92.56,62.49-66.12,57.15-99.54,72.19-159.59,71.81-26.79-.21-62.88-4.11-80.19-8.77-32.94-8.87-45.64-5.64-31.89,8.11,22.42,22.42,141.6,34.9,191.21,20.05ZM523.32,2271.84c28.51-8.88,41.03-17.3,49.22-33.14,6.04-11.69,10.99-22.57,10.99-24.2s-22.87-4.87-50.82-7.21c-27.95-2.34-76.3-11.4-107.44-20.14-40.79-11.44-68.25-14.83-98.26-12.11-48.28,4.37-62.58-3.2-65.77-34.88-2-19.89,1.25-23.54,35.62-40.11,20.8-10.02,61.85-41.59,91.2-70.13,29.37-28.56,69.09-61.86,88.28-74.03l34.89-22.13-22.59-16.08c-22.26-15.84-23.3-15.91-70.39-4.07-59.84,15.04-113.19,41.72-132.52,66.3-8.18,10.4-20.41,34.29-27.19,53.11-6.78,18.82-21.74,55.09-33.26,80.61-11.51,25.52-20.92,48.78-20.92,51.69s7.62,8.77,16.94,13.02c9.31,4.24,38.73,26.22,65.38,48.82,26.65,22.61,59.22,45.99,72.39,51.97,29.59,13.41,109.14,9.88,164.26-7.29ZM459.35,2256.57c-13.24-15.96-.48-36.2,22.89-36.2,14.52,0,17.44,3.67,17.44,21.88,0,16.62-3.66,22.39-15.23,24.04-8.37,1.2-19.66-3.19-25.1-9.72ZM379.65,2249.89c-15.19-18.3-6.17-36.82,17.94-36.82,25.97,0,34.42,22.85,13.98,37.8-16.66,12.18-21.1,12.04-31.92-.99ZM302.66,2223.63c-6.72-21.19,11.36-39.28,32.56-32.56,24.25,7.71,18.03,43.1-8.11,46.12-14.63,1.69-20.66-1.67-24.45-13.56ZM263.22,2071.89c-9.33-17.46,6-40.11,24.7-36.44,20.43,4.01,30.58,24.54,19.03,38.47-12.95,15.6-34.84,14.58-43.73-2.03ZM318.9,2029.87c-11.3-11.3-4.88-38.31,10.23-43.1,21.48-6.82,42.06,13.94,31.13,31.39-8.41,13.42-32.75,20.32-41.36,11.72ZM384.52,1978.83c-11.29-11.3-4.88-38.3,10.23-43.1,21.48-6.82,42.07,13.94,31.13,31.39-8.41,13.43-32.75,20.32-41.36,11.72ZM3139.78,2279c14.02-5.86,47.31-29.16,73.98-51.8,26.67-22.63,56.12-44.61,65.43-48.86,9.32-4.24,16.94-10.1,16.94-13.02s-9.41-26.18-20.92-51.69c-11.51-25.52-26.48-61.78-33.26-80.61-6.78-18.82-19.02-42.71-27.19-53.11-19.33-24.58-72.68-51.27-132.52-66.3-47.09-11.83-48.13-11.77-70.38,4.07l-22.59,16.08,34.88,22.13c19.19,12.17,58.91,45.49,88.28,74.03,29.36,28.55,70.4,60.1,91.2,70.13,34.38,16.57,37.62,20.22,35.62,40.11-3.19,31.67-17.47,39.25-65.77,34.88-30.01-2.72-57.47.62-98.26,12.11-31.14,8.74-79.49,17.8-107.44,20.15-27.95,2.33-50.82,5.58-50.82,7.2s4.96,12.55,11.03,24.29c8.7,16.79,19.94,23.81,52.87,32.97,23.02,6.4,45.12,12.8,49.13,14.19,19.49,6.8,87.17,2.5,109.81-6.96h0ZM2999.97,2257.26c-7.77-20.24.55-36.89,18.38-36.89,22.99,0,36.02,20.24,23.07,35.85-11.96,14.42-36.09,15.02-41.45,1.04ZM3089.05,2250.97c-19.25-14.07-12.21-37.4,12.12-40.21,22.61-2.6,34.29,15.04,22.42,33.86-10.02,15.9-19.19,17.59-34.54,6.35ZM3155.16,2233.73c-2.68-2.67-4.87-12.3-4.87-21.39,0-21.05,26.31-30.79,41.67-15.41,15.37,15.36,5.64,41.66-15.43,41.66-9.09,0-18.71-2.19-21.38-4.86ZM3193.54,2073.91c-6.94-8.37-7.47-14.89-1.91-23.69,10.87-17.27,32.68-19.59,43.6-4.65,20.24,27.68-19.68,54.83-41.67,28.34h-.01ZM3144.74,2025.95c-19.54-19.54.22-47.56,27.49-38.91,11.46,3.63,14.79,9.83,13.12,24.3-2.5,21.64-25.36,29.86-40.62,14.61ZM3079.11,1974.91c-19.53-19.54.23-47.56,27.51-38.91,11.46,3.63,14.79,9.83,13.11,24.3-2.5,21.65-25.36,29.86-40.62,14.61ZM613.04,2151.12c14.22-3.96,31.86-11.57,39.2-16.95,12.11-8.85,8.12-12.24-42.87-36.45l-56.23-26.7,33.78-48.32c18.58-26.58,32.31-49.79,30.53-51.59-8.45-8.44-48.64-2.94-80.07,10.96-32.38,14.33-128.85,98.07-128.85,111.84,0,3.38,7.38,6.21,16.4,6.3l16.4.21-34.11,26.24,60.81,15.4c68.15,17.25,106.92,19.68,145.01,9.1v-.04ZM492.79,2105.71c-14.57-20.8-14.49-45.03.21-57.21,15.75-13.07,33.87-.87,42.28,28.47,11.33,39.47-20.07,60.73-42.48,28.74h-.01ZM3028.44,2142.49l64.8-15.9-17.05-13.11-17.04-13.11,16.4-.22c9.02,0,16.4-2.92,16.4-6.29,0-13.79-96.48-97.52-128.85-111.84-31.44-13.9-71.63-19.41-80.07-10.96-1.8,1.8,11.95,24.99,30.53,51.58l33.78,48.32-55.73,26.48c-59.58,28.29-60.99,33.38-13.85,50.17,40.06,14.28,76.44,13.03,150.68-5.18v.05ZM2967.88,2110.84c-11.46-13.8-1.68-53.17,15.96-64.3,28.18-17.78,46.28,27.14,23.85,59.17-13.25,18.93-26.91,20.69-39.81,5.13ZM867.56,2111.39c7.26-8.75,3.44-11.92-22.79-18.93-41.98-11.21-137.26-55.4-137.26-63.67,0-10.15,56.84-89.77,85.1-119.19,23.56-24.54,24.28-26.62,10.4-30.25-10.44-2.73-24.71,4.74-47.59,24.88-32.36,28.48-120.83,133.55-120.83,143.5s179.31,72.71,212.4,73.8c6.52.22,15.79-4.35,20.58-10.13ZM2711.81,2107.09c66.12-18.32,154.09-52.15,154.09-59.25,0-10.05-88.26-114.96-120.83-143.63-22.89-20.15-37.15-27.61-47.59-24.88-13.88,3.63-13.16,5.71,10.4,30.25,28.26,29.42,85.11,109.04,85.11,119.19,0,8.27-95.29,52.46-137.26,63.67-26.24,7-30.07,10.18-22.81,18.93,11.25,13.56,15.23,13.34,78.89-4.3ZM935.88,2038.46c15.13-11.47,21.71-7.91-55.2-29.68-23.07-6.54-41.93-14.45-41.93-17.59s17.6-22.36,39.11-42.7c37.61-35.58,38.43-37.15,21.49-41.4-11.69-2.94-24.73.64-38.9,10.75-23.85,16.99-70.23,71.16-73.97,86.37-3.09,12.61,75.43,43.95,110.6,44.16,14.03,0,31.49-4.39,38.79-9.92ZM2663.79,2033.83c24.94-8.33,47.96-17.68,51.16-20.78,7.37-7.09-44.98-73.88-74.22-94.69-14.76-10.51-27.81-14.22-39.6-11.26-16.94,4.24-16.12,5.82,21.51,41.4,21.49,20.33,39.09,39.55,39.09,42.7s-18.86,11.05-41.93,17.59c-76.91,21.77-70.32,18.23-55.2,29.68,18.72,14.19,46.8,12.87,99.18-4.63ZM665.8,1907.69c12.9-5.53,32.62-19.8,43.83-31.73l20.37-21.69-62.58-22.79c-81.3-29.62-193.24-76.81-193.24-81.47s111.96-51.86,193.28-81.49l62.62-22.81-23.85-24.6c-60.94-62.88-131.37-48.3-249.07,51.55-25.35,21.51-53.47,41.44-62.47,44.3-15.65,4.96-15.82,5.85-3.8,19.12,11.95,13.2,11.95,14.66,0,27.85-12.02,13.29-11.85,14.16,3.8,19.12,9.01,2.88,37.13,22.81,62.47,44.3,98,83.15,152.78,104.24,208.64,80.33ZM628.15,1875.62c-9.05-16.92,2.68-38.1,21.12-38.1s33.03,26.54,21.38,40.58c-11.98,14.42-34.13,13.14-42.49-2.47ZM543.02,1858.12c-5.16-16.23,13.8-38.01,28.76-33.03,12.25,4.09,21.56,24.55,16.79,36.96-6.91,18.02-39.47,15.21-45.55-3.92h0ZM461.82,1818.3c-6.03-15.73,6.93-35.47,23.26-35.47,7.15,0,16.34,5.3,20.43,11.78,11.13,17.65.85,35.62-20.43,35.62-10.57,0-20.67-5.18-23.26-11.92ZM467.15,1710.26c-15.18-18.3-6.16-36.82,17.94-36.82,15.07,0,22.44,4.01,24.2,13.12,2.9,15.02-10.69,34.28-24.2,34.28-5.04,0-13.11-4.76-17.94-10.58ZM551.35,1667.52c-19.05-13.93-9.29-41.48,14.67-41.48,20.35,0,30.68,18.23,19.97,35.2-10.04,15.92-19.19,17.57-34.64,6.27ZM628.15,1649.56c-14.96-27.95,22.18-52.09,42.49-27.61,6.44,7.77,6.61,14.35.64,25.52-9.88,18.47-33.76,19.63-43.13,2.1ZM2947.88,1896c18.11-9.03,57.49-37.02,87.51-62.17,30.02-25.16,61.82-48.04,70.69-50.85,15.36-4.88,15.53-5.75,3.51-19.05-11.94-13.19-11.94-14.65,0-27.85,12.02-13.28,11.85-14.16-3.79-19.12-9.02-2.86-37.14-22.79-62.49-44.3-117.71-99.85-188.14-114.43-249.07-51.55l-23.85,24.6,62.62,22.81c81.34,29.63,193.28,76.83,193.28,81.49s-111.94,51.85-193.24,81.47l-62.58,22.79,20.37,21.68c42.24,44.94,93.98,51.55,157.05,20.05h-.01ZM2828.94,1877.01c-6.94-8.37-7.47-14.89-1.93-23.69,10.88-17.27,32.68-19.59,43.61-4.65,20.24,27.68-19.68,54.83-41.67,28.34h-.01ZM2911.92,1862.05c-4.76-12.41,4.53-32.87,16.79-36.96,14.96-4.99,33.91,16.79,28.76,33.03-6.08,19.14-38.64,21.95-45.55,3.93ZM2992.13,1818.3c-6.04-15.73,6.91-35.47,23.26-35.47,7.13,0,16.34,5.3,20.41,11.78,11.14,17.65.85,35.62-20.41,35.62-10.58,0-20.67-5.18-23.26-11.92ZM2997.44,1710.26c-15.18-18.3-6.16-36.82,17.94-36.82,15.08,0,22.46,4.01,24.21,13.12,2.89,15.02-10.7,34.28-24.21,34.28-5.02,0-13.1-4.76-17.94-10.58ZM2917.24,1666.51c-13.96-16.82-6.11-36.54,15.56-39.05,25.29-2.94,36.84,25.07,16.47,39.98-16.77,12.25-21.19,12.13-32.02-.94h0ZM2828.94,1650.97c-6.94-8.37-7.49-14.89-1.93-23.69,10.88-17.27,32.68-19.59,43.61-4.65,20.24,27.68-19.68,54.83-41.67,28.34h-.01ZM405.95,1644.29c1.25-4.02-22.38-15.1-52.53-24.66-71.21-22.55-119.84-64.34-141.38-121.5-8.24-21.88-21.83-57.96-30.19-80.15-8.37-22.2-26.22-54.79-39.69-72.43l-24.47-32.06,45.15-21.53c24.84-11.83,66.48-39.95,92.56-62.49,66.12-57.15,99.54-72.2,159.59-71.82,26.79.22,62.88,4.13,80.19,8.79,32.83,8.84,45.64,5.65,32.01-7.99-11.48-11.48-87.08-27.99-128.76-28.12-55.93-.22-84.02,12.02-166.33,72.17-42.24,30.88-94.69,65.51-116.54,76.94l-39.73,20.8,31.04,54.45c17.08,29.95,44.48,86.32,60.92,125.27,41.02,97.22,75.87,129.39,175.11,161.62,42.58,13.84,59.35,14.55,63.06,2.69h0ZM3150.78,1643.48c101.29-30.03,140.43-65.21,181.91-163.52,16.43-38.95,43.84-95.32,60.91-125.27l31.04-54.45-39.72-20.8c-21.86-11.43-74.29-46.06-116.54-76.94-82.31-60.16-110.42-72.35-166.35-72.17-41.67.21-117.27,16.65-128.75,28.12-13.63,13.64-.82,16.83,32,7.99,17.31-4.66,53.41-8.6,80.2-8.77,60.04-.4,93.47,14.66,159.59,71.81,26.08,22.53,67.72,50.65,92.55,62.49l45.16,21.53-24.46,32.05c-13.46,17.63-34.76,59.25-47.32,92.48-12.56,33.24-26.41,69.54-30.76,80.67-14.29,36.52-72.45,81.06-131.01,100.34-64.19,21.15-59.84,18.86-53.93,28.42,6.24,10.09,8.63,9.92,55.48-3.97ZM792.59,1590.43c-28.25-29.42-85.1-109.04-85.1-119.19,0-8.31,95.38-52.48,137.73-63.79,29.32-7.84,31.02-9.53,20.36-20.19s-16.52-10.34-69.53,3.85c-68.16,18.24-161.48,53.54-161.48,61.08,0,10.05,88.25,114.95,120.83,143.63,22.89,20.14,37.15,27.6,47.59,24.86,13.88-3.62,13.16-5.7-10.41-30.25ZM2771.95,1570.15c35.16-37.28,93.96-111.02,93.96-117.81,0-7.67-92.74-42.83-161.48-61.22-53.02-14.19-58.88-14.52-69.54-3.85s-8.94,12.35,20.36,20.19c42.52,11.35,137.73,55.5,137.73,63.85,0,10.1-68.57,104.96-90.62,125.36-17.56,16.26-18.19,18.47-6.35,22.73,15.32,5.52,38.44-9.48,75.93-49.25ZM489.73,1581.59l21.48-15.3-34.89-22.12c-19.18-12.17-58.91-45.49-88.26-74.03-29.36-28.55-70.4-60.12-91.2-70.14-34.43-16.6-37.61-20.18-35.45-40.02,3.84-35.32,12.07-39.99,62.07-35.33,33.98,3.18,58.85.33,101.68-11.7,31.19-8.76,79.58-17.83,107.54-20.18,27.95-2.34,50.82-5.58,50.82-7.21s-4.95-12.51-10.99-24.2c-12.82-24.79-60.48-42.41-131.98-48.8-60.13-5.36-87.69,5.19-150.57,57.75-29.06,24.28-60.22,47.52-69.24,51.63-9.02,4.13-16.4,9.88-16.4,12.8s9.41,26.18,20.92,51.69c11.51,25.52,26.48,61.78,33.26,80.61,22.81,63.32,56.24,89.82,146.34,116.07,56.88,16.56,59.54,16.52,84.86-1.52h0ZM387.83,1561.31c-5.36-3.4-8.64-14.01-7.29-23.59,2.96-20.91,32.91-24.41,44.99-5.25,13.89,22.03-14.36,43.64-37.7,28.85h0ZM322.2,1510.27c-5.36-3.4-8.64-14.01-7.3-23.58,2.97-20.92,32.92-24.42,45-5.26,13.89,22.03-14.36,43.64-37.7,28.85h0ZM263.22,1452.06c-9.33-17.46,6-40.11,24.68-36.45,20.44,4.02,30.59,24.55,19.05,38.47-12.95,15.61-34.84,14.59-43.73-2.02ZM306.73,1301.91c-4.88-5.88-6.61-17.42-3.91-25.94,7.12-22.46,42.79-17.41,46.19,6.55,3.79,26.83-25.11,40.1-42.28,19.4ZM377.26,1286.09c-8.67-8.67-5.83-29.62,5.27-38.83,15.6-12.94,42.13,3.16,39.2,23.81-2.28,15.96-33.12,26.39-44.47,15.02ZM459.35,1272.14c-13.25-15.96-.48-36.2,22.89-36.2,14.52,0,17.43,3.67,17.43,21.87,0,16.64-3.66,22.4-15.22,24.06-8.37,1.2-19.67-3.19-25.1-9.72ZM901.51,1592.57c13.84-3.72,11.49-7.77-23.71-41.07-42.41-40.11-45.64-46.5-26.3-52.15,7.02-2.04,32.25-9.24,56.07-15.99,39.59-11.21,42.13-13.12,29.59-22.29-7.54-5.52-24.43-10.02-37.56-10.02-22.57,0-101.75,25.09-113.91,36.09-7.29,6.59,38.36,66.42,69.28,90.78,26.45,20.85,25.06,20.41,46.53,14.66ZM2641.06,1581.45c28.69-20.44,81.28-87.43,73.89-94.15-12.26-11.13-91.32-36.26-114.08-36.26-13.12,0-30.02,4.5-37.56,10.01-15.62,11.43-22.14,7.94,56.49,30.2,23.06,6.54,41.93,14.44,41.93,17.59s-17.68,22.43-39.28,42.86c-38.21,36.14-39.07,40.25-9.26,44.34,3.4.48,15.93-6.11,27.86-14.59ZM3086.74,1585.41c57.08-14.79,109.22-41.37,128.02-65.26,8.18-10.4,20.41-34.29,27.19-53.11,6.78-18.82,21.74-55.09,33.25-80.61,11.51-25.52,20.93-48.78,20.93-51.69s-7.38-8.67-16.42-12.78c-9.02-4.11-40.17-27.35-69.24-51.64-62.88-52.54-90.42-63.11-150.57-57.75-71.48,6.39-119.15,24.02-131.96,48.8-6.05,11.69-10.99,22.57-10.99,24.2s22.86,4.87,50.82,7.21c27.95,2.34,76.34,11.42,107.53,20.18,42.84,12.02,67.71,14.88,101.68,11.7,50.02-4.66,58.23.01,62.08,35.33,2.15,19.84-1.02,23.43-35.45,40.02-20.8,10.04-61.85,41.59-91.2,70.14-29.37,28.55-69.05,61.84-88.18,73.98l-34.81,22.07,20.28,15.11c24.62,18.37,22.44,18.25,77.03,4.11h0ZM3076.87,1556.17c-12.98-15.63,0-35.85,23.17-35.85,12.84,0,18.08,4.61,19.89,17.41,3.91,27.56-25.18,40-43.06,18.45ZM3142.49,1505.12c-12.98-15.63,0-35.85,23.17-35.85,12.84,0,18.1,4.61,19.9,17.41,3.89,27.56-25.19,40-43.08,18.45ZM3193.54,1454.08c-6.95-8.37-7.49-14.89-1.93-23.69,10.88-17.28,32.68-19.59,43.61-4.65,20.24,27.68-19.68,54.83-41.67,28.34h-.01ZM3158.76,1306.09c-5.36-3.4-8.64-14.01-7.29-23.58,3.38-23.95,39.05-29,46.19-6.55,8.28,26.08-15.83,44.74-38.9,30.12ZM3082.57,1286.09c-19.64-19.64,14.33-56.29,35.72-38.55,16.87,14.01,9.62,39.07-12.03,41.59-10.17,1.17-20.84-.22-23.69-3.05ZM2999.96,1272.82c-7.76-20.24.56-36.88,18.38-36.88,23,0,36.03,20.24,23.08,35.85-11.98,14.42-36.09,15.02-41.46,1.03ZM619.99,1527.11c0-1.35-15.05-23.97-33.43-50.26l-33.43-47.82,56.23-26.7c51-24.23,54.99-27.61,42.88-36.46-37.7-27.56-91.56-30.05-180.2-8.31l-64.8,15.88,17.05,13.12,17.04,13.11-16.4.21c-9.02,0-16.42,3.06-16.42,6.57s22.68,27.79,50.38,53.93c52.78,49.78,110.46,78.89,143.72,72.54,9.56-1.84,17.37-4.43,17.37-5.78v-.04ZM490.19,1449.59c-12.98-12.98-10.62-38.4,5.38-57.89,19.15-23.33,41.06-10.96,39.47,22.27-1.8,37.28-24.85,55.6-44.85,35.62ZM2984.04,1508.64c20.48-10.92,107.92-93.96,107.92-102.5,0-3.37-7.38-6.21-16.4-6.29l-16.42-.22,34.11-26.22-64.8-15.9c-88.64-21.74-142.5-19.25-180.2,8.32-12.11,8.85-8.14,12.24,42.87,36.45l56.23,26.7-33.43,47.82c-18.38,26.31-33.42,49.08-33.42,50.61s7.38,3.97,16.4,5.43c16.98,2.72,57.88-8.66,87.14-24.25v.05ZM2975.46,1447.6c-14.28-17.18-13.03-55.31,2.11-64.82,25.93-16.29,55.48,44.05,32.73,66.81-11.73,11.73-24.03,11.03-34.84-1.98h0ZM777.19,1340.8c17.81-4.48,32.39-9.85,32.39-11.94s-25.72-35.33-57.16-73.88c-31.44-38.55-69.69-87.6-84.98-108.99l-27.82-38.9,32.12,4.34c109.91,14.84,196.18,27.81,219.89,33.05,31.33,6.93,31.26,7.09,15.65-38.72-22.39-65.73-81.31-90.15-186.34-77.22-33.46,4.11-71.09,10.25-83.63,13.63-12.54,3.37-31.57,4.45-42.3,2.41-17.98-3.44-19.12-2.23-14.7,15.41,2.64,10.54,1.99,19.2-1.46,19.27-3.44,0-11.05,3.15-16.91,6.85-9.31,5.9-9.26,8.4.33,19.94,6.03,7.26,15.3,26.34,20.58,42.37,18.34,55.55,64.28,145.92,82.79,162.87,10.23,9.36,31.22,21.52,46.63,27.03,34.64,12.34,26.9,12.05,64.91,2.47h.01ZM727.35,1318.81c-28.34-15.86-3.14-57.23,25.53-41.89,7.12,3.81,12.94,13.27,12.94,21,0,18.34-21.83,30.2-38.47,20.89ZM654.35,1264.22c-8.67-8.67-5.82-29.63,5.27-38.85,15.61-12.94,42.14,3.18,39.2,23.81-2.28,15.97-33.1,26.39-44.47,15.04ZM609.15,1183.95c-6.52-6.54-10.05-16.65-7.81-22.48,2.24-5.82,4.06-11.96,4.06-13.64,0-6.96,34.22-2.36,42.3,5.7,11.53,11.53,11.04,17.08-2.71,30.84-14.48,14.48-21.02,14.4-35.84-.4h0ZM837.28,1115.7l-16.77-13.77,16.42-16.65,16.4-16.65,14.87,14.87c27.43,27.43-.86,56.9-30.92,32.21ZM665.48,1085.28c-19.54-19.55.23-47.56,27.51-38.91,11.44,3.63,14.78,9.83,13.11,24.3-2.51,21.64-25.36,29.85-40.62,14.61ZM756.44,1089.21c-8.67-8.67-5.82-29.62,5.29-38.83,15.6-12.95,42.13,3.16,39.18,23.81-2.28,15.96-33.1,26.39-44.47,15.02ZM2807.58,1330.54c10.02-5.14,25.48-17.13,34.33-26.62,16.61-17.78,58.58-104.01,75.67-155.49,5.32-16.04,14.61-35.11,20.65-42.37,9.58-11.55,9.62-14.05.31-19.94-5.86-3.7-13.46-6.78-16.91-6.85-3.44,0-4.09-8.72-1.46-19.27,4.44-17.64,3.28-18.85-14.7-15.41-10.73,2.04-29.76.98-42.3-2.41s-50.17-9.52-83.63-13.63c-105.02-12.93-163.94,11.49-186.34,77.22-15.61,45.82-15.67,45.64,15.66,38.72,23.71-5.25,109.96-18.21,219.88-33.05l32.12-4.34-27.81,38.9c-15.31,21.4-54,70.99-85.98,110.21-32,39.22-56.9,72.56-55.35,74.09,1.55,1.52,14.32,6.09,28.35,10.14,28.04,8.1,59.41,4.54,87.51-9.88h0ZM2743.4,1318.33c-21.77-21.77,2.38-55.85,29.34-41.41,17.16,9.18,16.51,33.17-1.16,42.62q-17.57,9.4-28.18-1.21ZM2805.48,1264.22c-19.64-19.64,14.33-56.3,35.72-38.55,16.87,13.99,9.62,39.05-12.03,41.58-10.18,1.18-20.84-.21-23.69-3.05h0ZM2855.48,1184.37c-13.75-13.76-14.23-19.31-2.69-30.84,17.59-17.59,49.59-6.72,49.59,16.85,0,5.23-23.17,25.45-29.17,25.45-3.44,0-11.4-5.16-17.7-11.46h-.01ZM2629.42,1118.72c-14.93-14.92-14.45-20,3.4-36.15,14.45-13.07,15.24-13.03,30.06,1.77,16.14,16.16,13.88,26.62-8.33,38.51-10.14,5.43-16.64,4.36-25.12-4.13ZM2703.39,1089.21c-19.64-19.64,14.33-56.3,35.72-38.55,16.87,14.01,9.62,39.07-12.03,41.59-10.18,1.18-20.84-.21-23.69-3.05ZM2798.15,1089.21c-11.29-11.29-4.88-38.3,10.23-43.1,21.48-6.81,42.07,13.94,31.13,31.39-8.41,13.43-32.75,20.32-41.36,11.72ZM1093.97,1137.52c-7.67-29.77-13.14-54.92-12.16-55.9.98-.98,26.13,4.49,55.9,12.15,29.79,7.65,54.92,13.15,55.87,12.2.95-.95-2.24-9.74-7.12-19.5-10.22-20.5-70.77-42.58-118.74-43.29l-29.89-.49,6.05,38.62c9.35,59.56,24.07,95.34,43.22,105.03,9.52,4.82,18.08,7.97,19.05,7.02.95-.95-4.53-26.1-12.2-55.87v.04ZM2427.2,1178.66c9.67-12.24,22.89-56.33,29.59-98.74l5.88-37.19-29.9.49c-48,.72-108.54,22.78-118.76,43.29-4.87,9.76-8.07,18.54-7.11,19.49.95.95,26.09-4.52,55.87-12.18,29.77-7.65,54.92-13.12,55.9-12.15.96.96-4.6,26.26-12.35,56.19-7.78,29.92-14.19,54.92-14.25,55.55-.49,4.62,29.93-8.1,35.14-14.7v-.04ZM1002.97,1146.63c-9.58-37.8-18.3-100.28-18.34-131.25v-31h30.98c30.98,0,93.44,8.77,131.26,18.34,20.56,5.21,24.59,0,13.59-17.29-7.52-11.87-119.47-41.87-183.15-49.08l-45.85-5.18,5.18,45.85c7.21,63.68,37.21,175.63,49.08,183.15,17.35,11,22.48,6.96,17.29-13.59l-.04.04ZM2514.8,1160.22c11.87-7.52,41.87-119.45,49.08-183.14l5.18-45.86-45.85,5.19c-63.68,7.2-175.63,37.19-183.15,49.07-11,17.35-6.96,22.5,13.59,17.29,37.8-9.57,100.28-18.29,131.25-18.34h31v31c0,30.98-8.77,93.44-18.34,131.25-5.21,20.56,0,24.59,17.29,13.6l-.04-.05ZM878.57,936.05l-5.25-62.92,63.46,5.27,63.48,5.29-11.74-22.72c-22.05-42.63-88.03-77.86-185.14-98.85-22.77-4.91-24.08-4.19-19.33,10.77,4.39,13.84,2.98,15.37-10.21,11.18-18.77-5.95-18.77-6.77,0,62.79,17.97,66.6,47.82,117.19,81.15,137.51,13.12,7.99,24.97,14.55,26.34,14.57s0-28.29-2.76-62.9h0ZM812.97,867.3c-8.6-13.92,3.94-43.68,21.86-51.84,23.3-10.61,40.37-3.18,40.37,17.59,0,29.58-48.6,56.33-62.23,34.25ZM2683.83,946.47c20.19-27.87,41.57-84.25,54.31-143.28,4.92-22.77,4.19-24.08-10.77-19.33-14.01,4.44-15.39,3.06-10.95-10.95,4.75-14.96,3.44-15.69-19.33-10.77-97.1,20.97-163.08,56.2-185.13,98.85l-11.76,22.72,126.95-10.57-5.29,63.48-5.29,63.46,22.72-11.74c12.5-6.47,32.53-25.29,44.53-41.85h-.01ZM2637.59,859.57c-17.42-19.28-13.45-45.86,7.29-48.82,20.72-2.94,47.59,23.93,44.65,44.65-3.03,21.34-34.19,23.84-51.94,4.17ZM637.71,985.22c2.19-3.57-1.46-10.95-8.14-16.42-6.67-5.47-26.09-28.86-43.17-51.99-44.8-60.66-52.23-100.5-35.8-191.76,7.89-43.74,11.48-90.06,9.33-120.01l-3.48-48.78,48.78,3.49c29.95,2.15,76.26-1.46,120-9.33,105.37-18.97,155.71-3.78,234.82,70.92,16.88,15.93,24.37,19.18,28.59,12.37,8.33-13.49-71.64-85.19-119.36-107.05-35.67-16.32-45.17-17.56-102.39-13.3-34.68,2.59-102.87,6.64-151.53,9.02l-88.47,4.32-4.33,88.47c-2.37,48.66-6.43,116.86-9.01,151.54-4.26,57.15-3.02,66.72,13.21,102.09,16.88,36.8,87.51,122.88,100.81,122.88,3.37,0,7.93-2.92,10.13-6.46ZM2917.41,949.75c21.12-23.06,46.45-59.48,56.3-80.95,16.23-35.37,17.47-44.94,13.21-102.09-2.59-34.68-6.64-102.88-9.02-151.53l-4.32-88.48-88.47-4.32c-48.66-2.38-116.85-6.44-151.54-9.02-57.2-4.26-66.7-3.02-102.39,13.32-47.72,21.84-127.68,93.55-119.35,107.03,4.22,6.81,11.69,3.58,28.59-12.37,79.11-74.7,129.45-89.89,234.81-70.92,43.74,7.88,90.06,11.48,120.01,9.33l48.78-3.49-3.49,48.78c-2.15,29.95,1.46,76.27,9.33,120.01,16.44,91.26,9,131.09-35.79,191.76-17.08,23.13-36.5,46.54-43.18,52.01-11.72,9.61-10.56,22.86,1.99,22.86,3.37,0,23.41-18.86,44.51-41.92h.01ZM765.04,965.49c1.56-1.43-.48-6.8-4.63-11.91-13.11-16.26-37.04-80.22-53.58-143.32-10.3-39.26-23.09-69.23-35.77-83.85-28.26-32.57-29.66-42.19-9.22-64.14,20.5-22.01,30.62-20.65,64.76,8.75,14.45,12.45,45.02,25.42,83.85,35.62,63.1,16.55,127.06,40.47,143.32,53.58,11.64,9.39,13.3,7.47,19.77-22.68,4.91-22.87,2.46-27.14-38.38-66.85-23.98-23.33-57.76-49.62-75.05-58.45-33.26-16.96-39.21-17-192.73-1.3l-51.04,5.22-5.22,51.04c-15.69,153.52-15.65,159.47,1.31,192.73,8.81,17.29,35.12,51.06,58.45,75.05,39.71,40.82,43.96,43.27,66.85,38.36,13.43-2.88,25.72-6.42,27.3-7.86h.01ZM666,906.84c-4.76-12.41,4.53-32.88,16.78-36.96,14.96-4.99,33.91,16.78,28.76,33.03-6.07,19.14-38.62,21.95-45.54,3.92h0ZM638.74,834.38c-13.76-13.75-14.24-19.29-2.71-30.83,22.01-22.03,56.94.31,42.54,27.23-9.61,17.96-24.15,19.28-39.84,3.59ZM617.86,768.37c-11.29-11.29-4.88-38.3,10.23-43.1,21.48-6.81,42.07,13.94,31.14,31.39-8.42,13.43-32.75,20.33-41.37,11.72ZM874.95,699.54c-6.01-11.25-5.78-17.78.94-25.88,13.51-16.29,38.98-9.63,41.88,10.94,4.17,29.46-28.87,40.99-42.82,14.94ZM803.74,676.67c-19.28-19.28-1.43-54.72,22.86-45.38,18.58,7.12,23.28,33.29,7.99,44.47-16.25,11.89-19.77,11.99-30.85.9h0ZM729.92,653.27c-13.75-16.57-2.82-40.77,18.39-40.77s30.66,18.26,19.71,35.63c-10.08,16.01-27.17,18.32-38.1,5.14ZM2830.31,934.23c22.94-23.58,48.91-57.02,57.74-74.31,16.96-33.26,17-39.21,1.3-192.73l-5.22-51.04-51.04-5.22c-153.52-15.69-159.47-15.65-192.73,1.31-17.29,8.81-51.06,35.12-75.05,58.45-40.82,39.71-43.27,43.96-38.36,66.85,6.47,30.14,8.14,32.05,19.76,22.66,16.26-13.11,80.23-37.02,143.33-53.58,38.83-10.18,69.39-23.16,83.85-35.62,34.13-29.39,44.26-30.76,64.75-8.74,20.44,21.95,19.06,31.57-9.2,64.13-12.69,14.62-25.48,44.59-35.79,83.86-16.55,63.09-41.01,128.81-52.45,140.95-13.64,14.45-3.84,21.08,36.85,24.89,5.82.55,29.34-18.29,52.27-41.87ZM2788.93,902.91c-5.16-16.25,13.8-38.01,28.76-33.03,12.25,4.09,21.54,24.55,16.79,36.96-6.91,18.02-39.47,15.21-45.55-3.92h0ZM2821.91,830.79c-14.4-26.9,20.52-49.26,42.54-27.23,11.52,11.53,11.04,17.08-2.71,30.83-15.69,15.69-30.23,14.37-39.84-3.59ZM2845.77,764.45c-19.54-19.54.23-47.54,27.49-38.9,11.46,3.63,14.79,9.83,13.12,24.3-2.51,21.64-25.36,29.85-40.62,14.59ZM2589.99,708.18c-14.97-9.49-7.47-40.62,10.4-43.17,21.88-3.12,35.37,15.39,25.12,34.52-8.57,16.01-19.66,18.71-35.53,8.64ZM2665.87,675.76c-15.28-11.18-10.57-37.35,7.99-44.47,24.3-9.33,42.15,26.1,22.86,45.38-11.07,11.08-14.59,10.97-30.85-.9h0ZM2734.93,652.96c-13.96-16.82-6.09-36.55,15.56-39.05,14.42-1.68,20.61,1.67,24.24,13.11,8.94,28.17-21.48,48.01-39.8,25.94ZM1491.64,880.48c6.44-23.06,14.28-41.93,17.42-41.93s22.37,17.6,42.7,39.11c35.58,37.61,37.14,38.43,41.4,21.51,2.96-11.79-.72-24.85-11.26-39.61-20.62-28.95-87.62-81.65-94.37-74.22-10.73,11.81-36.27,90.92-36.27,112.31,0,12.15,3.8,29.19,8.45,37.87,8.27,15.44,8.57,15.47,14.35,1.33,3.24-7.94,11.16-33.3,17.59-56.37h0ZM2048.97,898.99c.23-22.31-24.83-101.32-36.02-113.66-6.76-7.43-73.76,45.26-94.37,74.22-10.52,14.76-14.23,27.82-11.26,39.61,4.24,16.92,5.82,16.1,41.4-21.51,40.15-42.45,46.54-45.68,52.19-26.34,2.04,7.02,9.13,31.84,15.73,55.17,10.91,38.52,12.94,41.2,22.07,29.17,5.52-7.29,10.14-23.8,10.27-36.67ZM1144.7,891.41c-5.25-23.71-18.2-109.96-33.05-219.88l-4.32-32.13,38.9,27.82c21.39,15.3,70.44,53.54,108.99,84.98,38.55,31.45,71.79,57.18,73.88,57.18s7.36-14.18,11.72-31.5c9.85-39.15.95-75.56-26.44-108.1-18.93-22.5-101.61-65.96-165.71-87.13-16.04-5.3-35.11-14.55-42.37-20.59-11.55-9.58-14.06-9.62-19.94-.31-3.7,5.86-6.78,13.46-6.85,16.91,0,3.44-8.72,4.09-19.27,1.46-17.64-4.44-18.85-3.28-15.41,14.7,2.04,10.73.96,29.76-2.41,42.3-3.38,12.54-9.52,50.17-13.63,83.63-12.64,102.78,11.69,163.75,74.19,185.87,46.85,16.57,48.62,15.93,41.75-15.19h-.01ZM1082.79,867.46c-13.07-14.45-13.02-15.24,1.78-30.06,16.14-16.14,26.61-13.88,38.51,8.34,5.43,10.13,4.35,16.62-4.13,25.11-14.93,14.93-20.01,14.45-36.16-3.4ZM1050.2,787.48c-10.49-19.59,2.71-38.13,24.89-34.95,22.44,3.2,21.84,44.98-.72,48.18-10.31,1.48-18.84-3.19-24.2-13.23h.03ZM1277.13,752.68c-9.05-16.91,2.68-38.09,21.12-38.09s33.03,26.53,21.38,40.56c-11.96,14.44-34.13,13.14-42.49-2.47ZM1046.44,692.33c-6.95-21.94,13.59-42.65,31.26-31.52,6.94,4.39,12.63,15.82,12.63,25.4,0,24.43-36.45,29.51-43.88,6.12ZM1225.2,685.39c-10.48-19.59,2.72-38.13,24.9-34.95,22.43,3.2,21.83,44.98-.72,48.18-10.31,1.48-18.85-3.19-24.21-13.23h.03ZM1153.76,647.49c-8.07-8.06-12.68-42.28-5.7-42.28,1.67,0,7.81-1.84,13.64-4.06,10.52-4.05,34.35,13.96,34.35,25.93,0,7.62-20.87,29.17-28.24,29.17-2.92,0-9.24-3.93-14.06-8.75h0ZM2394.49,907.06c65.73-22.39,90.14-81.31,77.22-186.33-4.13-33.47-10.25-71.09-13.63-83.63-3.37-12.54-4.47-31.57-2.41-42.3,3.44-17.98,2.23-19.14-15.43-14.71-10.53,2.64-19.2,1.99-19.25-1.44,0-3.45-3.15-11.05-6.85-16.91-5.9-9.31-8.4-9.27-19.94.31-7.26,6.03-26.34,15.3-42.37,20.59-64.1,21.17-146.79,64.63-165.71,87.13-27.39,32.55-36.29,68.96-26.44,108.09,4.36,17.34,9.63,31.5,11.72,31.5s35.33-25.72,73.88-57.16c38.55-31.44,87.6-69.69,108.99-84.98l38.9-27.82-4.33,32.12c-14.84,109.91-27.81,196.18-33.05,219.89-6.93,31.33-7.09,31.26,38.72,15.65ZM2381.52,870.86c-8.47-8.49-9.54-14.98-4.13-25.11,11.9-22.22,22.37-24.49,38.51-8.34,14.81,14.81,14.85,15.61,1.78,30.06-16.16,17.85-21.23,18.32-36.16,3.4ZM2409.31,791.58c-7.08-18.45.48-36.82,16.14-39.07,21.83-3.12,35.29,15.41,25.06,34.52-9.24,17.28-35.21,20.14-41.2,4.54ZM2180.85,755.15c-6.44-7.77-6.61-14.35-.62-25.52,9.88-18.47,33.74-19.63,43.12-2.1,14.96,27.95-22.17,52.1-42.49,27.62h0ZM2409.14,696.35c-10.27-26.78,19.34-50.42,38.79-30.97,16.21,16.21,6.01,41.92-16.62,41.92-9.88,0-19.85-4.93-22.17-10.95ZM2234.31,689.49c-7.08-18.45.48-36.82,16.13-39.05,21.83-3.14,35.29,15.4,25.06,34.52-9.24,17.26-35.21,20.13-41.19,4.53ZM2315.88,644.8c-6.3-6.31-11.46-14.28-11.46-17.72,0-5.99,20.22-29.16,25.45-29.16,23.56,0,34.43,32,16.85,49.59-11.53,11.52-17.08,11.04-30.84-2.71ZM1407.94,844.01c11.35-42.49,55.39-136.72,63.92-136.72,11.4,0,82.94,50.73,115.14,81.65,27.56,26.48,30.31,27.61,33.9,13.88,2.75-10.47-4.69-24.71-24.86-47.62-28.67-32.57-133.58-120.83-143.63-120.83-7.51,0-42.8,93.22-60.92,160.92-12.56,46.94-13.66,59.36-6.05,68.53,12.82,15.44,13.19,15.13,22.51-19.8ZM2109.14,795.85c-18.24-68.16-53.54-161.48-61.08-161.48-10.04,0-114.95,88.26-143.63,120.83-19.5,22.17-27.56,37.3-25.02,47.01,3.35,12.78,7.58,10.87,39.46-17.8,38.03-34.19,99.37-77.12,110.18-77.12,8.28,0,52.46,95.47,63.75,137.73,7.84,29.3,9.53,31.02,20.19,20.36s10.34-16.52-3.85-69.54ZM1683.18,630.73c43.82-113.71,62.17-156.61,67.06-156.69,4.66,0,51.8,111.72,81.49,193.23l22.81,62.62,24.6-23.85c62.88-60.94,48.3-131.37-51.55-249.07-21.51-25.35-41.44-53.47-44.3-62.47-4.96-15.65-5.85-15.82-19.12-3.79-13.2,11.94-14.66,11.94-27.85,0-13.29-12.03-14.16-11.86-19.14,3.79-2.85,9.01-22.79,37.13-44.29,62.47-98.05,115.59-113.05,180.66-56.12,243.67,14.37,15.91,26.97,28.01,28.01,26.91,1.03-1.12,18.32-44.68,38.39-96.82ZM1620.44,669.38c-21.78-21.77,2.37-55.85,29.34-41.42,17.16,9.19,16.51,33.17-1.16,42.62q-17.59,9.41-28.2-1.2h.01ZM1850.5,670.25c-28.29-16.48-3.55-57.76,25.33-42.3,14.89,7.97,16.99,28.63,4.2,41.41-10.45,10.45-12.97,10.53-29.54.87h0ZM1631.13,585.75c-15.86-15.86.33-46.18,24.66-46.18,13.02,0,23.08,29.45,13.85,40.58-9.06,10.91-30.12,13.98-38.51,5.61h0ZM1831.13,580.49c-6.72-8.08-6.94-14.62-.92-25.87,13.94-26.05,46.98-14.52,42.82,14.94-2.92,20.57-28.38,27.21-41.89,10.92ZM1672.83,499.89c-7.77-20.24.55-36.89,18.38-36.89,23,0,36.03,20.24,23.07,35.85-11.96,14.42-36.09,15.04-41.45,1.04ZM1786.48,499.18c-13.24-15.97-.48-36.2,22.89-36.2,14.52,0,17.44,3.67,17.44,21.87,0,16.62-3.66,22.4-15.23,24.06-8.37,1.2-19.66-3.19-25.1-9.72ZM1402.99,608.2l26.27-55.3,48.32,33.77c26.57,18.59,49.78,32.32,51.58,30.54,8.45-8.45,2.94-48.64-10.96-80.07-14.32-32.38-98.05-128.85-111.84-128.85-3.38,0-6.21,7.38-6.3,16.4l-.21,16.4-13.19-17.14-13.2-17.14-16.83,69.91c-18.3,75.99-17.35,124.71,3.24,164.52,6.33,12.25,12.71,22.27,14.16,22.27s14.46-24.89,28.91-55.3h.04ZM1387.46,531.27c-13.8-13.98-11.01-26.61,8.7-39.52,21.45-14.06,47.07-11.52,57.89,5.73,5.99,9.57,5.27,15.27-3.01,23.54-15.5,15.5-52.5,21.48-63.58,10.26ZM2151.32,612.8c10.78-38.81,8.9-69.54-8.63-141l-15.88-64.8-13.12,17.05-13.11,17.04-.21-16.4c0-9.02-2.93-16.4-6.3-16.4-13.79,0-97.52,96.48-111.84,128.85-13.9,31.44-19.41,71.63-10.96,80.07,1.8,1.8,24.99-11.95,51.58-30.54l48.32-33.77,26.7,56.21c24.23,51,27.61,54.99,36.46,42.88,5.36-7.34,12.99-24.98,16.94-39.2h.05ZM2065.45,532.1c-20.84-8.55-27.87-25.96-16.17-40.06,12.46-15.01,38.75-13.55,59.27,3.28,30.77,25.26-2.32,53.49-43.1,36.78ZM1292.99,532.5c2.34-27.96,11.43-76.35,20.18-107.54,12.02-42.84,14.88-67.71,11.72-101.68-4.67-50.02,0-58.23,35.32-62.07,19.84-2.16,23.43,1,40.03,35.45,10.02,20.8,41.58,61.84,70.13,91.2,28.55,29.36,61.86,69.07,74.03,88.26l22.12,34.89,16.08-22.59c15.86-22.25,15.91-23.29,4.09-70.38-15.04-59.86-41.72-113.19-66.31-132.54-10.39-8.18-34.29-20.41-53.1-27.19-18.82-6.78-55.09-21.74-80.61-33.25-25.53-11.51-48.78-20.93-51.71-20.93s-8.66,7.39-12.78,16.42c-4.11,9.02-27.35,40.17-51.63,69.24-52.55,62.88-63.11,90.44-57.75,150.57,6.18,69.19,24.1,119.02,47.33,131.63,10.88,5.91,21.78,10.88,24.2,11.04,2.43.21,6.33-22.57,8.67-50.52ZM1234.77,491.18c-6.04-15.73,6.91-35.47,23.26-35.47s29.29,19.75,23.26,35.47c-5.99,15.6-40.54,15.6-46.53,0ZM1524.48,419.6c-13.96-16.81-6.09-36.54,15.56-39.05,14.41-1.67,20.61,1.67,24.24,13.11,8.94,28.18-21.48,48.01-39.8,25.94ZM1246.84,407.84c-5.98-11.17-5.82-17.74.64-25.52,20.37-24.55,57.92.23,42.39,28-9.62,17.18-33.22,15.82-43.02-2.47h0ZM1473.43,353.97c-13.96-16.82-6.09-36.54,15.56-39.05,14.41-1.67,20.61,1.67,24.24,13.11,8.94,28.17-21.48,48.01-39.8,25.94ZM1266.54,345.12c-11.03-11.04-4.37-38.06,10.54-42.8,20.5-6.51,38.77,11.76,32.26,32.26-4.74,14.92-31.76,21.57-42.8,10.54ZM1423.56,304.77c-21.77-21.77,2.38-55.85,29.34-41.41,21.49,11.49,11.81,50.16-12.58,50.16-4.41,0-11.95-3.93-16.77-8.75ZM2238.89,572.34c24.79-12.82,42.41-60.49,48.8-131.98,5.36-60.13-5.21-87.69-57.75-150.57-24.28-29.07-47.53-60.22-51.64-69.24s-9.87-16.42-12.78-16.42-26.18,9.43-51.69,20.93c-25.52,11.51-61.78,26.47-80.61,33.25-18.82,6.8-42.71,19.02-53.11,27.19-24.58,19.34-51.27,72.68-66.3,132.54-11.83,47.09-11.77,48.13,4.07,70.38l16.08,22.59,22.13-34.89c12.16-19.19,45.49-58.91,74.03-88.26,28.55-29.37,60.1-70.4,70.13-91.2,16.6-34.43,20.19-37.61,40.02-35.45,35.32,3.83,40,12.05,35.33,62.07-3.18,33.98-.31,58.84,11.72,101.68,8.75,31.19,17.82,79.58,20.17,107.54,2.34,27.95,5.6,50.82,7.21,50.82s12.51-4.95,24.2-10.99ZM2219.18,491.18c-6.04-15.73,6.91-35.47,23.26-35.47s29.29,19.75,23.26,35.47c-5.99,15.6-40.55,15.6-46.53,0ZM1940.38,419.91c-13.75-16.56-2.82-40.76,18.41-40.76s30.64,18.25,19.71,35.62c-10.09,16.03-27.17,18.33-38.12,5.14ZM2210.5,409.95c-14.96-27.95,22.18-52.1,42.49-27.62,6.46,7.77,6.61,14.35.64,25.52-9.88,18.47-33.74,19.63-43.13,2.1h0ZM1991.42,354.29c-13.75-16.56-2.82-40.77,18.41-40.77s30.64,18.26,19.71,35.63c-10.09,16.03-27.18,18.33-38.12,5.14ZM2191.27,335.01c-6.72-21.19,11.36-39.28,32.55-32.55,11.92,3.78,15.27,9.82,13.58,24.45-3.02,26.14-38.42,32.35-46.12,8.1ZM2043.38,304.77c-21.78-21.77,2.38-55.85,29.34-41.41,21.49,11.49,11.81,50.16-12.58,50.16-4.41,0-11.95-3.93-16.77-8.75ZM1170.62,512.22c-12.2-47.53-16.42-104.04-10.23-137.12,7.41-39.64,24.28-68.06,75.57-127.21,19.12-22.05,44.53-60.64,56.49-85.72l21.7-45.63,22.04,18.54c29.29,24.66,51.29,35.57,126.94,62.93,40.79,14.76,73.96,32.39,92.61,49.21,29.77,26.84,67.04,95.12,75,137.41,4.48,23.78,12.61,30.07,21.13,16.31,6.07-9.83-15.27-81.94-36.87-124.57-23.97-47.28-65.61-80.33-140.22-111.27-34.98-14.5-88.39-40.5-118.69-57.76l-55.07-31.39-28.51,50c-15.69,27.49-50.39,79.75-77.15,116.1-52.12,70.86-64.95,101.25-64.95,153.99,0,36.55,12.43,103.27,23,123.48,10.78,20.61,23.02,15.41,17.2-7.29ZM2354.14,498.9c14.74-43.86,19.23-121.99,9.09-158.18-4.88-17.47-30.9-61.68-57.81-98.26-26.92-36.58-61.77-89.02-77.44-116.51l-28.51-50-55.08,31.39c-30.28,17.26-83.69,43.26-118.69,57.76-74.59,30.93-116.25,63.98-140.2,111.27-21.61,42.63-42.95,114.74-36.87,124.57,8.5,13.76,16.65,7.47,21.12-16.31,7.36-39.11,44.76-109.6,71.78-135.3,15.97-15.19,50.42-33.53,93.18-49.62,81.22-30.57,100.63-40.25,129.58-64.62l22.04-18.54,21.71,45.63c11.94,25.09,37.35,63.67,56.47,85.72,51.29,59.15,68.18,87.57,75.58,127.21,6.22,33.31,1.95,89.58-10.47,138.07-8.41,32.83,12.85,20.45,24.51-14.27Z"/>
  </g>
</svg>